/* XPM */
static char *_79c9fc797e24470dc84c877abe0b016w0bnQRd4jF26AcF1[] = {
/* columns rows colors chars-per-pixel */
"20 20 178 2 ",
"   c black",
".  c #0B0E08",
"X  c #180000",
"o  c #110104",
"O  c #0E1000",
"+  c #1A1305",
"@  c #16100B",
"#  c #1C110C",
"$  c #0A0C10",
"%  c #171815",
"&  c #1E1D10",
"*  c #1C1D1B",
"=  c #161419",
"-  c #200000",
";  c #270900",
":  c #2C0D00",
">  c #340900",
",  c #3F1000",
"<  c #371B0E",
"1  c #341811",
"2  c #302004",
"3  c #2A2319",
"4  c #191F28",
"5  c #1F1B23",
"6  c #242423",
"7  c #282922",
"8  c #2C2A2B",
"9  c #212B26",
"0  c #3A2E26",
"q  c #312F2E",
"w  c #39282B",
"e  c #302A23",
"r  c #303120",
"t  c #34332E",
"y  c #242830",
"u  c #392C33",
"i  c #323330",
"p  c #35343A",
"a  c #3F3F3E",
"s  c #3A3835",
"d  c #421C07",
"f  c #4A2008",
"g  c #482F1C",
"h  c #4B331E",
"j  c #55341F",
"k  c #683A13",
"l  c #4F3A2D",
"z  c #403F39",
"x  c #473331",
"c  c #553829",
"v  c #3F413C",
"b  c #6F4216",
"n  c #494626",
"m  c #43443E",
"M  c #4A4B34",
"N  c #7B5925",
"B  c #69513E",
"V  c #785737",
"C  c #795737",
"Z  c #7D6331",
"A  c #343640",
"S  c #323A40",
"D  c #3C3E44",
"F  c #493D43",
"G  c #4B4A46",
"H  c #47484E",
"J  c #4C4D4D",
"K  c #434649",
"L  c #534D4A",
"P  c #4D524C",
"I  c #51534B",
"U  c #56584E",
"Y  c #484C57",
"T  c #4D525E",
"R  c #535252",
"E  c #5D5C5B",
"W  c #5C5A57",
"Q  c #695140",
"!  c #6C5049",
"~  c #6F5849",
"^  c #7A5C4B",
"/  c #626546",
"(  c #65645D",
")  c #776E5E",
"_  c #5F676D",
"`  c #5D6560",
"'  c #6B6D65",
"]  c #6C6C6C",
"[  c #666866",
"{  c #69706D",
"}  c #70706E",
"|  c #737265",
" . c #6C6D74",
".. c #676A72",
"X. c #707774",
"o. c #945B31",
"O. c #B37A4F",
"+. c #887261",
"@. c #897C76",
"#. c #A47D64",
"$. c #B98F6D",
"%. c #BF9468",
"&. c #BC9162",
"*. c #C7916D",
"=. c #D7A76E",
"-. c #D8AC6E",
";. c #D0A07C",
":. c #7C7B82",
">. c #817D83",
",. c #8A8785",
"<. c #96988E",
"1. c #999A8E",
"2. c #898F96",
"3. c #95969A",
"4. c #A08B84",
"5. c #AC998B",
"6. c #A5A78D",
"7. c #A0A092",
"8. c #A8A79E",
"9. c #B9B594",
"0. c #9CA0A6",
"q. c #A9ABAF",
"w. c #A7A6A5",
"e. c #A8AEB0",
"r. c gray75",
"t. c #B5B4A9",
"y. c #C4A287",
"u. c #D9AC80",
"i. c #C6BB8D",
"p. c #C8AB9E",
"a. c #D8B787",
"s. c #E1BF86",
"d. c #C9AEA0",
"f. c #C6BAB1",
"g. c #C8CCA4",
"h. c #C5C7B9",
"j. c #C8C9B4",
"k. c #D4D7B7",
"l. c #E8D8BB",
"z. c #EFE3BA",
"x. c #BEC5C4",
"c. c #CAC8C9",
"v. c #D7D4CE",
"b. c #CCC7D9",
"n. c #D5D9DF",
"m. c #E1CDCD",
"M. c #E6D8CD",
"N. c #E1D2CC",
"B. c #E9E9DB",
"V. c #E2E4D6",
"C. c #FDEEDA",
"Z. c #F0F2D8",
"A. c #D7D5E1",
"S. c #D9D5E1",
"D. c #E5E6E4",
"F. c #EDEDED",
"G. c #E9ECE4",
"H. c #F8EDE8",
"J. c #F1EAEA",
"K. c #ECF3E3",
"L. c #F1F7E0",
"P. c #F2F5EF",
"I. c #FCF1EC",
"U. c #F4FAEB",
"Y. c #FFFCEB",
"T. c #F8F5E5",
"R. c #E9EDF2",
"E. c #F5EFFF",
"W. c #EFF1F5",
"Q. c #EFF0F9",
"!. c #F3F5F4",
"~. c #FCF6F3",
"^. c #F5F8F5",
"/. c #FEFCF4",
"(. c #F3F4FD",
"). c #FBF6FC",
"_. c #F6F9FD",
"`. c #FDFDFC",
/* pixels */
"`.`.`.`.`.`.P.`.`./.`.`.).`.).(.).).`.`.",
"`.`.`.).).).`.`.<.I i 8 :.b.).(.`.`.`.`.",
"`.`.`.`.D.`.v.7 O m m a 8 5 S.`.`.`.`.`.",
"`.`.`.`.`.c.% s ' I W ' ,.8 G `.).).).).",
"`.`.`.).F.6 K } W G 1.h.B.B.r | t * w.`.",
"`.).`.`.R i ] R t U V./.j.Z./ O ( q t ).",
"/.!.`.r.* a J E 3 t.U.L.6.k.g.n & s E `.",
"D.`.`.E $ m v E z 8.U.K.M 9.i.z.)   c.).",
"`.P.P 9 [ ` P v w.( e.x.7.l.&.%.g @.`.`.",
"`.R * { X.] [ 6 w.F.2.w./.C.$.k ~ /.`.`.",
"_.A p ] ] >. .p 3.`.`._.!.`.f.3 ).`.).`.",
"(.A.F o w u = A ..n.(.`._.`.q.R ~./.).`.",
"(.`.m.1 ! x E Y D q.W.(.`.`.:.@ g B I.`.",
"Q.~.d.- d < L H E J 0.R.`.~.0 +.y.; H.`.",
"D.T.C b u.V + P L W S _ [ l - ;.C Q I.~.",
"/.Y.V k =.a.3 I R G K D 0 : o.O.: M.~.`.",
"U.Y.p.> -.s.+ 4 y $ % # X #.*., 5.`.`.).",
"/.B.I.c N Z e T Y ..,.N.^ j f ^ I.`.!.).",
"/./.`.v.2 n `.(._._.).J./.@.4./.`.!.^.`.",
"K.^.!./.T.Y./._._.).`.`.~.~.).`.).!.`.`."
};
