/* XPM */
static char *_06ef4826f3f4748f2befc30152537bdjFe36fYueHy3W3kn[] = {
/* columns rows colors chars-per-pixel */
"50 50 230 2 ",
"   c #020202",
".  c #0C0201",
"X  c #040905",
"o  c #0C0C05",
"O  c #09040B",
"+  c #060909",
"@  c #0B0C0B",
"#  c #010609",
"$  c #130200",
"%  c #1C0100",
"&  c #130A01",
"*  c #1C0C01",
"=  c #130C0C",
"-  c #1C0A0D",
";  c #0B1206",
":  c #11120C",
">  c #181405",
",  c #180E14",
"<  c #0E1111",
"1  c #131414",
"2  c #1B1C1C",
"3  c #191614",
"4  c #220100",
"5  c #2C0200",
"6  c #250D00",
"7  c #2C0C01",
"8  c #330B03",
"9  c #3C0C00",
"0  c #291300",
"q  c #351804",
"w  c #321D16",
"e  c #1D2317",
"r  c #2B220B",
"t  c #2B2317",
"y  c #392315",
"u  c #38301A",
"i  c #1F2121",
"p  c #232424",
"a  c #262928",
"s  c #2B2B2B",
"d  c #2D2428",
"f  c #2E3428",
"g  c #2E3234",
"h  c #333433",
"j  c #353A35",
"k  c #363938",
"l  c #3B3D3C",
"z  c #3B3733",
"x  c #353F2E",
"c  c #470E00",
"v  c #581C00",
"b  c #651E12",
"n  c #582801",
"m  c #572713",
"M  c #562F1D",
"N  c #663D1E",
"B  c #523A25",
"V  c #3A463B",
"C  c #5D4917",
"Z  c #41443E",
"A  c #6E593A",
"S  c #393941",
"D  c #443F43",
"F  c #3E4141",
"G  c #434444",
"H  c #454847",
"J  c #474948",
"K  c #4B4D4C",
"L  c #494948",
"P  c #524C48",
"I  c #4E504F",
"U  c #4B4C51",
"Y  c #4F5150",
"T  c #535454",
"R  c #565857",
"E  c #575958",
"W  c #5A5B5B",
"Q  c #5B5559",
"!  c #5B534F",
"~  c #625D5E",
"^  c #5E625E",
"/  c #706852",
"(  c #5E5E62",
")  c #655F6A",
"_  c #636464",
"`  c #6C6C6C",
"'  c #686A66",
"]  c #706E6E",
"[  c #747474",
"{  c #7B7B7B",
"}  c #767978",
"|  c #726D76",
" . c #8D3C18",
".. c #924017",
"X. c #945628",
"o. c #955B33",
"O. c #85532E",
"+. c #A8512D",
"@. c #96703D",
"#. c #A96A31",
"$. c #C8591B",
"%. c #F37918",
"&. c #C15A34",
"*. c #DD772D",
"=. c #C97739",
"-. c #DC7A35",
";. c #D36531",
":. c #E7793B",
">. c #EB7431",
",. c #936E4B",
"<. c #AA6145",
"1. c #83747B",
"2. c #C35E43",
"3. c #C76C49",
"4. c #D77B4C",
"5. c #F17642",
"6. c #E4744D",
"7. c #DA9A2C",
"8. c #EE8629",
"9. c #FC892E",
"0. c #F99028",
"q. c #E68736",
"w. c #F98235",
"e. c #EA9B38",
"r. c #F0A131",
"t. c #998669",
"y. c #8A807C",
"u. c #B9966B",
"i. c #BC8965",
"p. c #D79348",
"a. c #DA8956",
"s. c #DB9453",
"d. c #CF9054",
"f. c #F38848",
"g. c #F69645",
"h. c #E79757",
"j. c #ED924B",
"k. c #D8A558",
"l. c #EFA757",
"z. c #C69861",
"x. c #EE9B64",
"c. c #C4A67D",
"v. c #EBA969",
"b. c #E2B268",
"n. c #F9BA63",
"m. c #F5B672",
"M. c #F8C466",
"N. c #FFC57A",
"B. c #7F7886",
"V. c #807F84",
"C. c #7F858A",
"Z. c #828383",
"A. c #8A8C8B",
"S. c #898C88",
"D. c #8C928B",
"F. c #949595",
"G. c #9B9C9C",
"H. c #989996",
"J. c #90908F",
"K. c #B99F88",
"L. c #9AA099",
"P. c #9A9DA7",
"I. c #A29FA3",
"U. c #9EA0A0",
"Y. c #ABACAC",
"T. c #A5A6A7",
"R. c #ADB2AD",
"E. c #B1B2AC",
"W. c #AEB2B1",
"Q. c #B9BBB9",
"!. c #B4B4B4",
"~. c #A5A5B1",
"^. c #DAB681",
"/. c #CEB28A",
"(. c #F2BB83",
"). c #ECB68B",
"_. c #FFC983",
"`. c #FCC686",
"'. c #F7C696",
"]. c #FEDB94",
"[. c #E4C68B",
"{. c #FFE397",
"}. c #F6DAAC",
"|. c #FFE7BC",
" X c #D4D0BD",
".X c #C4C4C3",
"XX c #CCCDCC",
"oX c #C6C8C7",
"OX c #CFD1D0",
"+X c #D3D4D4",
"@X c #DCDDDD",
"#X c #DAD8D7",
"$X c #CCCECD",
"%X c #E5D9D8",
"&X c #E9D3CA",
"*X c #DEE0D8",
"=X c #FFFADB",
"-X c #FEE7CF",
";X c #D8D1E3",
":X c #E0D5E2",
">X c #DEE0E2",
",X c #E4E4E3",
"<X c #EBECEC",
"1X c #E6E7E9",
"2X c #EEF2EA",
"3X c #F2F2EE",
"4X c #FBFAE8",
"5X c #ECEDF7",
"6X c #EEF2F1",
"7X c #E8FDF6",
"8X c #F2F2F2",
"9X c #F6F6F6",
"0X c #F4F4F4",
"qX c #FAF5F4",
"wX c #F5F8F6",
"eX c #FBFBF5",
"rX c #FCF6FC",
"tX c #F5FBFB",
"yX c #F9FBFA",
"uX c #F9F9F9",
"iX c #FCFBFC",
"pX c #FAFDFD",
"aX c #FDFFFF",
"sX c #FCFFFE",
"dX c #FEFEFE",
"fX c white",
"gX c #FFFEFF",
"hX c #FDFDFD",
"jX c #FDFEFE",
"kX c #F9EDF7",
/* pixels */
"dXdXdXdXdXdXdXdXdXdXdXdXdXdXdXdXdXdXdXdXuX0XuXdXdXdXdXdXdXdXdXdXuXuXuXuXuXdXwXpXdXdXdXdXdXdXdXdXdXdX",
"dXdXdXdXdXdXdXdXdXdXdXdXdXdXdXdXdXdXdXiXuXiXuX8XdXuXuXdXdXuX0XuXuXuXuXuXdX6XdXwXpXpXpXpXiXiXdXdXdXdX",
"dXdXdXdXdXdXdXdXdXdXdXdXdXdXdXdXdXdXdXdX8XdXdXuX0X@XoX.X+X0XdX0XuXuXuXuXwXdX6XdXdXdXdXdXdXdXdXdXdXdX",
"dXdXdXdXdXdXdXdXdXdXdXdXdXdXdXdXdXdXdXdXdX,XG.T 3 X   +   3 K { uXuXuXpXpXwXdXpXpXdXdXdXdXdXdXdXdXdX",
"dXdXdXdXdXdXdXdXdXdXdXdXdXuX0XdX8XdXdX@X_ @       X @ 1 +       3 T.pXdXdXdXdXdXpXdXdXdXdXdXdXdXdXdX",
"dXdXdXdXdXdXdXdXdXdXdXdXdXdXdXdX0X0X{ X   @ X k G R _ R R T k p     { 0XdXdXdXdXdXdXdXdXdXdXdXdXdXdX",
"dXdXdXdXdXdXdXdXdXdXdXdXdXdXdX0X@XR +   2 k R ' ` ` _ R E _ _ E s   @ H.dXdXdXdXdXdXdXdXdXdXdXdXdXdX",
"dXdXdXdXdXdXdXdXdXdXdXdXdXdX<X@X@ X @ h E } ' R T K J T I H K E E p   X ,XdXdXdXdXdXdXdXdXdXdXdXdXdX",
"dXdXdXdXdXdXdXdXdXdXdXdX0XuX!.+   @ l [ ' E W Y T G E l G W k S L ~ 2   ` uXdXdXdXuXuXdXpX0XdX6XdXdX",
"dXdXdXdXdXdXdXdXdXdXdXdXdXoXX X 3 T [ _ E K T K K K K ` G.U.Y.H.} R B X p 0XdXdXuX0XpXdXpXpXtXuXdXdX",
"dXdXdXdXdXdXdXdXdXdXdXdX<X3   < L ` [ T T J T K K S.#XwX1XdXdXdX0XXX] =   G.dXoX{ J p h G XXdXdXdXdX",
"dXdXdXdXdXdXdXdXdXdXdXdXl   3 R [ E J T T J T K H.D.R E ` J.1X0X0XdX<X]   K ]           @ @ Q.dXdXdX",
"dXdXdXdXdXdXdXdXiXdXdX{     K [ _ T K T R K T K i s W.pX<XY.{ @X9X<X0X!.  O   @ s h K h 2 X k dXdXdX",
"dXdXdXdXdXdXdXdXiXdX1X3 X h ' ` E K K K T R a + J @X6XtXdX0X1X[ ,XuXdX,X3 1 s Q I T K H k X 2 @XdXdX",
"dXdXdXdXdXdXdXdXdX0X`   3 R [ W T K T K K K X p 1XdXpXyXdXdXdXXXF.0X0X0Xs O @ h } [ G I J   1 @XdXdX",
"dXdXdXdXdXiXdXdXdX@X    l ` _ K K I K K K h   A.dX6XdXpXuXdXdX<X_ iX4X4X/ t &   3 ` T T F   p dXdXdX",
"dXdXdXdX8XuXdXdX0X[   3 ' ' ~ I R G K R K p   +XdXdXpXpXdXdXY.iX) %X=Xz.^.^.,.6   + j W 2 + [ dXdXdX",
"dXdXdXiXuXuXiXdX0X2   k K p p I K T G R R + @ ,XdXdXpXpXpXA.  V.B.&X'.v._.].'.c.y & o s # + +XdXdXdX",
"dXdXdXdXdXiX9X0X!.  X 1 1 s s 1 G J E H _ E   OXdXdXpXpXpXF.  K G &X(.N.N._.(.'.'.N $     C.eXqXdXdX",
"dXdXdXdXdXdX0X6XK   X s T R K k p K T H [ G.X Z.dXdXpXpXtXuX.XA.G -Xs.n.n.m.`.v.v.).q = g tXdXeXdXdX",
"dXdXdXdXdXuX'   X s J T E T W R s p _ K ^ 6Xl   XXuXdX0XdX0X6Xo  X|.q.0.9.8.g.=.h.O.6   $XpXpXeXdXdX",
"dXiX8XdX,X3 + 3 K K R W [ } ` } H a J G J dX+X@   Y.0XdXpXY.  { 4X}.j.%.%.9.-.p.X.8 . ] pXpXpXpXdXdX",
"dX8XuXiXs   s K E E ' } ` } ' [ _ p s K W @XdXXXp X p p @   A.pX7X=Xs.*.w.*.=.X.% & z dXdXpXdXdXdXdX",
"dXdXiX[   1 K W Y _ [ [ Z.[ Z.} [ s p R G .XpXpXpXG.E R F.1XpXpX7X4X'.=.a.a.o.%   G dXdXdXdXdXdXdXdX",
"dXiXdX3 + G J K ] { ] [ [ [ [ [ Z.k p T Y W.pXpXdXdXdXdXdXdXpXpXtX4X=X-XK.B * . z dXuXdXdXdXdXdXdXdX",
"dXdX+X@ X J R K ' { [ { [ [ [ [ [ k 2 E K T.dXwXpXpXpXpXpXdXpXpXeXeXeXwX*X:   T pXdXpXdXdXdXdXdXdXdX",
"uXuX0Xs X s K l E ` ' } [ [ [ [ ' s i E J } dXwXpXpXpXpXpXpXpXpXpXeXeXeXOXo o J.<X0X<XuXdXdXdXdXdXdX",
"dXuX0XH.    s k G E E ' [ [ [ [ ' < h T K J <XpXdXdXdXdXdXpXpXpXeXwXeXeXXXo o H.uX0X0XdXdXdXdXdXdXdX",
"dXdXdXdX[       + + 1 2 s s s s 2   G K W K Y.pXdXdXdXdXdXdXdXdXeX3X0XdXE.o   T.dXdXuXdXdXuXdXdXdXdX",
"dXdXdXdXdX+X_ 3   X @ X X X X X 3 k W E K K { dXdXdXdXdXdXdXdXpXeX0XeXpXS.:   E.0X0X8X0XdX8XdXdXdXdX",
"dXdXdXdXdX8XuX2 + k K k J J J J F R T T J J K OXdXdXdXdXdXdXdXpXpXdXeX3X'   : p @ o k { 9X9X8XwXdXdX",
"dXdXdXdXdXdX1X3   U [ ( R T R R E G K I T J I ` dXdXdXdXdXdXdXdXpXdXdX,X^ ;   & . * & . ! 9XdXdXdXdX",
"dXdXdXdXiXdX>X2 < F U S S ~ L T K K I I Y K T T S.<XuXuXdXdXdXdXdXdX3XR.V ; r t./.u.N 7 $ XX3X8XdXdX",
"dXdXdXdXiX0XiX1 . = & . . d E T K K I I T Y T T G G.<XdXwXiXdXdX6XuX.XL.V X A |.'.d.i.7 . #XdX0XdXdX",
"dXdXdXdX0X9XJ.- 4 5 n q $ = , H U K I I T Y T T _ l W Q.dXdXuXwXpX1XH.` X & u._.h.a.O.% d 1XrXkXdXdX",
"dXdXdXdX9X#X< % b 3.p.k.,.4   p K K I T T T T T T T Y l W ` Z.F.D.^ L t 6 q b.l.-.4.c $ | iXrXdXdXdX",
"dXdXdXdXiXT.  y 3.:.r.7.b.u.*   a R Y T T T T T Y K Y W K K G s f j f & $ o.l.q.j. .5 4 ;XrXrXrXdXdX",
"dXdXdXdXdXI.  8 &.w.0.r.M.{./ . 3 K K Y R R R R K T K l G k k Z V x e   9 x.g.*.#.c % 1.rXiXrXrXdXdX",
"dXdXdXdX9X@X  8 +.>.8.e.n.[./..   H K J K K K K F H G g l h h l e :   . #.q.>.-.m . t qXiXiXiXiXpXdX",
"dXdXdXdXiXdXs 4 +.;.g.e.M.].}.r   h l G k k k k h s h G l V h e ; o . O.h.q.$.+.$   Q.9XiXiXiXiXdXdX",
"dXdXdXdXdX0XZ.% b 3.:.g.n.{.[.0   s V h s g k j k l l k i s     & 0 #.x.5.6.o.4 . ] dX0XiXiXiXpXdXdX",
"dXdXdXdXdXiXXX- 5 <.f.q.n._.c.* = s k h k j g s s p 3 1 +     . C d.x.:.;.2.m   h 8X8XdXiXiXdXdXdXdX",
"dXdXdXdXdXdXdX~ $ m ;.f.l.].t.  : @ 1 3 < + X         @ X K i . @.s.>.5.4.n $ p ,XdXuXdXiXdXdXdXdXdX",
"dXdXdXdXdX9XdX%X= % ..=.k.[.u @         X X @ 1 a K } T.@X0XG.> 4 X.6.&.v 6   oXdX1XuX<XdXdXdXdXdXdX",
"dXdXdXdXdXdXdXdXy.$ 5 ,.u.A   o Q.W.Y.!.Y.Q.XX@X6XwXdXdXuX0XtXD & % 8 m 7 . W.tXpXdXiXdXdXdXdXdXdXdX",
"dXdXdXdXdXdXdXdXpXP & * y $ o D.dXpXwX0XpXdXdXdXdXdXdXdXdX6XdXdX| O     d Y.pX6XpXdXdXdXdXdXdXdXdXdX",
"dXdXdXdXdXdXdXdXwX2Xl O O O S.2XpXtXwXuXdXpXuXuXpXdXdXdXdXdX<XdXkX:X~.P.5X5XtXdXdXdXdXdXdXdXdXdXdXdX",
"dXdXdXdXdXdXdXpXpXyXdX~.P.$XdXpXuXdXdXpXuXpXdXdXdXdXdXdXdX8XuXiXrXrXiXtX5XdX5XtXdXdXdXdXdXdXdXdXdXdX",
"dXdXdXdXdXdXdXdXpXpXdXdXdXdXdXdXdXdXdXdXdXdXdXdXdXdXdXdXdXdXdXdXdXdXdXdXdXdXdXdXdXdXdXdXdXdXdXdXdXdX",
"dXdXdXdXdXdXdXdXdXdXdXdXdXdXdXdXdXdXdXdXdXdXdXdXdXdXdXdXdXdXdXdXdXdXdXdXdXdXdXdXdXdXdXdXdXdXdXdXdXdX"
};
