/* XPM */
static char * xpm[] = {
/* width height num_colors chars_per_pixel */
"10 10 2 1",
/* colors */
"  c None",
". c #000000",
"..........",
"....... ..",
"..........",
"  ......  ",
"  ....... ",
" .........",
"..........",
".. .... ..",
"......... ",
" ........ ",
};