/* XPM */
static char *result[] = {
/* columns rows colors chars-per-pixel */
"50 50 40 1 ",
"  c black",
". c #010000",
"X c #010101",
"o c #070100",
"O c #3B051C",
"+ c #273438",
"@ c #29373A",
"# c #5E0C02",
"$ c #750A37",
"% c #720939",
"& c #720A38",
"* c #740A38",
"= c #750A39",
"- c #780A3A",
"; c #7A0A3C",
": c #435B5F",
"> c #4A6369",
", c #4D666C",
"< c #4D676D",
"1 c #960F1F",
"2 c #9B111D",
"3 c #9D111D",
"4 c #B91704",
"5 c #BD1704",
"6 c #940F20",
"7 c #C01704",
"8 c #C11704",
"9 c #C51804",
"0 c #C91804",
"q c #96C8D8",
"w c #96C8D9",
"e c #97CADA",
"r c #97CADB",
"t c #99CADA",
"y c #F7FCF9",
"u c #F7FEFB",
"i c #F6FEFC",
"p c #FAFCFA",
"a c #FAFCFF",
"s c None",
/* pixels */
"ssssssssssssssssssssssssssssssssssssssssssssssssss",
"ssssssssssssssssssssssssssssssssssssssssssssssssss",
"ssssssssssssssssssssssssssssssssssssssssssssssssss",
"ssssssssssssssssssssssssssssssssssssssssssssssssss",
"ssssssssssssssssssssssssssssssssssssssssssssssssss",
"sssssssssssssssssss            sssssssssssssssssss",
"ssssssssssssssssss  #555555555   sssssssssssssssss",
"sssssssssssssssss  555555555555   ssssssssssssssss",
"sssssssssssssssss 855555555555580  sssssssssssssss",
"sssssssssssssssss 555555555555559o sssssssssssssss",
"ssssssssssssssss  5555555555555555 sssssssssssssss",
"ssssssssssssssss 555555             ssssssssssssss",
"ssssssssssssssss 55555  wwwwwiaypww  sssssssssssss",
"ssssssssssssssss 55555 >wwwwyuywwwwq sssssssssssss",
"ssssssssssss     55555 >,wwwtttwwwww sssssssssssss",
"ssssssssssss     55555 >>rewwwwwwwww sssssssssssss",
"sssssssssss  557 55555 >>>:wwwwwwwww sssssssssssss",
"ssssssssss  5557 55555 >>>>>>>>>>>>> sssssssssssss",
"ssssssssss *5557 55555  >>>>>>>>>>>  sssssssssssss",
"ssssssssss *$557 555554 X>>>>>>><XX ssssssssssssss",
"ssssssssss **223 555555# +++++++@ # ssssssssssssss",
"ssssssssss ****= 5555555          5 ssssssssssssss",
"ssssssssss ****= *55555555555555555 ssssssssssssss",
"ssssssssss ****= **5555555555555555 ssssssssssssss",
"ssssssssss ****= **555555555555555* ssssssssssssss",
"ssssssssss ****= **%65555555555555* ssssssssssssss",
"ssssssssss ****= ***15555555555555* ssssssssssssss",
"ssssssssss ****= ***15555555555555* ssssssssssssss",
"ssssssssss ****= *****555555555555* ssssssssssssss",
"ssssssssss ****= ********555555**** ssssssssssssss",
"ssssssssss ****= ****************** ssssssssssssss",
"ssssssssss  ***= ****************** ssssssssssssss",
"sssssssssss ---; **************--** ssssssssssssss",
"sssssssssss      ************** .** ssssssssssssss",
"ssssssssssssssss *******       **** ssssssssssssss",
"ssssssssssssssss ******* sss ****** ssssssssssssss",
"ssssssssssssssss ******* sss ****** ssssssssssssss",
"ssssssssssssssss ******* sss *****O ssssssssssssss",
"ssssssssssssssss ******* sss &***&  ssssssssssssss",
"ssssssssssssssss ******* sss  **-  sssssssssssssss",
"ssssssssssssssss  *****  ssss     ssssssssssssssss",
"sssssssssssssssss       ssssssssssssssssssssssssss",
"ssssssssssssssssssssssssssssssssssssssssssssssssss",
"ssssssssssssssssssssssssssssssssssssssssssssssssss",
"ssssssssssssssssssssssssssssssssssssssssssssssssss",
"ssssssssssssssssssssssssssssssssssssssssssssssssss",
"ssssssssssssssssssssssssssssssssssssssssssssssssss",
"ssssssssssssssssssssssssssssssssssssssssssssssssss",
"ssssssssssssssssssssssssssssssssssssssssssssssssss",
"ssssssssssssssssssssssssssssssssssssssssssssssssss"
};
