/* XPM */
static char *df1258981450427ca79c2e2e14ba63a4uEco32QrNq8YEKoL[] = {
/* columns rows colors chars-per-pixel */
"50 50 217 2 ",
"   c #3D231C",
".  c #282B2C",
"X  c #37382F",
"o  c #2B2D33",
"O  c #2F3133",
"+  c #2F3A3B",
"@  c #323535",
"#  c #3D3733",
"$  c #353936",
"%  c #34363C",
"&  c #3B363B",
"*  c #36383D",
"=  c #393B3B",
"-  c #383934",
";  c #2B302F",
":  c #452B23",
">  c #4A3927",
",  c #53392F",
"<  c #5C372F",
"1  c #41373A",
"2  c #48393A",
"3  c #553B34",
"4  c #573A32",
"5  c #5D4337",
"6  c #363642",
"7  c #393544",
"8  c #353840",
"9  c #3B3D42",
"0  c #363648",
"q  c #35364A",
"w  c #2E394C",
"e  c #3E4143",
"r  c #404244",
"t  c #424449",
"y  c #4A4D4C",
"u  c #47484C",
"i  c #4B4D52",
"p  c #4F5353",
"a  c #535654",
"s  c #57595B",
"d  c #4E4E4B",
"f  c #5C615F",
"g  c #595A61",
"h  c #5E6061",
"j  c #64656B",
"k  c #6B6C6C",
"l  c #656669",
"z  c #6D6E74",
"x  c #636D76",
"c  c #6F7176",
"v  c #777A7A",
"b  c #6B706F",
"n  c #81533E",
"m  c #AD6238",
"M  c #B46235",
"N  c #B5653C",
"B  c #BA663D",
"V  c #BC693D",
"C  c #CE7D3F",
"Z  c #8A5B46",
"A  c #8E6646",
"S  c #94654D",
"D  c #8A6753",
"F  c #946552",
"G  c #996955",
"H  c #996753",
"J  c #BE6C43",
"K  c #B46D48",
"L  c #BB734D",
"P  c #BC7853",
"I  c #AB6F4B",
"U  c #937972",
"Y  c #C26D44",
"T  c #C26E48",
"R  c #C47146",
"E  c #C4724A",
"W  c #C9754C",
"Q  c #CD794E",
"!  c #C87747",
"~  c #D37F4F",
"^  c #CD7C53",
"/  c #C47C5B",
"(  c #CB7D5A",
")  c #C47D53",
"_  c #D37E53",
"`  c #D37E5B",
"'  c #D97F56",
"]  c #CC7F62",
"[  c #C98E3B",
"{  c #D88F3A",
"}  c #E2A53A",
"|  c #BD8A5B",
" . c #BC835B",
".. c #80807E",
"X. c #BB8264",
"o. c #B6816A",
"O. c #BC836C",
"+. c #BF8B6C",
"@. c #B88864",
"#. c #B88874",
"$. c #BD9673",
"%. c #CB8949",
"&. c #D3844B",
"*. c #D48B44",
"=. c #CD8255",
"-. c #C6835D",
";. c #CC845C",
":. c #C58553",
">. c #D38156",
",. c #D88252",
"<. c #D4835B",
"1. c #D9845B",
"2. c #DB885E",
"3. c #D5885B",
"4. c #E18C5D",
"5. c #E89F48",
"6. c #E8AF45",
"7. c #C38364",
"8. c #CB8362",
"9. c #C3866C",
"0. c #C48A6A",
"q. c #C68868",
"w. c #D28361",
"e. c #D58B64",
"r. c #DC8B63",
"t. c #C58B74",
"y. c #CA9578",
"u. c #D69672",
"i. c #E18C63",
"p. c #E49169",
"a. c #FDC94C",
"s. c #7A7B81",
"d. c #7E8183",
"f. c #878989",
"g. c #87898A",
"h. c #8D928E",
"j. c #8B8D91",
"k. c #8E9495",
"l. c #939595",
"z. c #939798",
"x. c #999C9D",
"c. c #95999A",
"v. c #BAAB9B",
"b. c #9D9EA2",
"n. c #9FA0A7",
"m. c #A5A7A8",
"M. c #AAADB0",
"N. c #B3B6B8",
"B. c #ADB1B2",
"V. c #CA9F99",
"C. c #CA9E87",
"Z. c #C8A98B",
"A. c #CAAD98",
"S. c #D2A796",
"D. c #CEB29C",
"F. c #D7A888",
"G. c #E6B699",
"H. c #C9ADA2",
"J. c #CEB2A4",
"K. c #D1B5A5",
"L. c #D1B4AC",
"P. c #D9B9A8",
"I. c #D9BCB8",
"U. c #BFC2BA",
"Y. c #DAC5A9",
"T. c #C7C7BD",
"R. c #DAC2B4",
"E. c #DBC2BC",
"W. c #D8C9B7",
"Q. c #CDD1BC",
"!. c #D4D0BB",
"~. c #D4D0B2",
"^. c #EAC4AD",
"/. c #E2CBB1",
"(. c #E5CBBD",
"). c #E6C6B6",
"_. c #CFBEC6",
"`. c #BFC0C4",
"'. c #C2C4C5",
"]. c #C6C8C5",
"[. c #CCCAC5",
"{. c #C2C4C9",
"}. c #C6CBCC",
"|. c #CCCECC",
" X c #D4CDC4",
".X c #D6CEC9",
"XX c #DACECB",
"oX c #DDC8C5",
"OX c #CCD2C4",
"+X c #CED1CD",
"@X c #C7D0CF",
"#X c #D4D1C5",
"$X c #D8D2C5",
"%X c #D2D1CB",
"&X c #DCD3CC",
"*X c #D2DACD",
"=X c #DCD9CE",
"-X c #CCCED2",
";X c #D3CDD2",
":X c #DACDD3",
">X c #CED1D1",
",X c #CED6D8",
"<X c #D1D3D3",
"1X c #DCD5D2",
"2X c #DBDAD2",
"3X c #D6D3D9",
"4X c #DBD3DB",
"5X c #D6DAD9",
"6X c #DCDCDA",
"7X c #D3DAD5",
"8X c #E4CAC9",
"9X c #E6D7C5",
"0X c #E9CFD3",
"qX c #E4D4D4",
"wX c #DBE0DC",
"eX c #D2DAE0",
"rX c #F1DCE3",
/* pixels */
"* * * * * * * * * * * * * * * * * * * * * * * * * * * * * * * * * * * * * * * * * * * * * * * * * * ",
"* * * * * * * * * * * * * * * * * * * * * * * * * * * * * * * * * * * * * * * * * * * * * * * * * * ",
"* * * * * * * * * * * * * * * * * * * * * * * % * * * * * * * * * * * * * * * * * * * * * * * * * * ",
"* * * * * * * * * * * * * * * * * * * * * * * % * * * * * * * * * * * * * * * * * * * * * * * * * * ",
"* * * * * * * * * * * * % * * % % % * * % % % % % % % * 9 9 9 9 9 * % * * * * * * * * * * * * * * * ",
"* * * * * * * * * * * 9 9 9 O o % 9 t u j j j j z z c c s i e % e o o e * * * * * * * * * * * * * * ",
"* * * * * * * * * * * * 9 r i p s.j.m.N.-X-X-X-X-X-X-X-X{.N.M.n.v g r u = * * * * * * * * * * * * * ",
"* * * * * * * * * * * * i z n.{.eX5X5X-X}.}.}.-X-X-X<X<X<X<X<X<X-X'.x.l r * $ * * * * * * * * * * * ",
"* * * * e o 9 % 9 = r d.>X>X>X>X,X,X,X>X>X>X>X>X>X>X-X>X5X5X-X}.|.+X+X|.N...r O O @ @ % * * * * * * ",
"* * * * o O e * r l B.{.>X+X+X|.+X%X2X2X%X X X[.[. X X$X&X&X.X XOXOXOXOX].U.m.v y = $ $ * * * * * * ",
"* * * * 9 e 9 i k.}.>X>X+X+XOX#XW.)././.D.D.D.A.Z.A.K.P.^.^.).(.!.Q.OXOXOXT.+X@Xh.p = @ $ $ * * * * ",
"* * * * % = i x.>X@X7X+X|. X!.W.^.G.F.y.+.+.+.+.I X.y.u.X.X.t.y.Y.~.!.Q.OX*X*X+X5Xh.y O $ @ @ * * * ",
"* * * * @ t M.-X}.].[. X$XR.K.Z. .I ) ;.;.e.;.L K -.;.( w.( L I $.Z./.9X$X#X*X7XwX5Xx.y ; @ @ $ * * ",
"* * * * t b.-X<X3X4XqXoXP.D.C.y.L m ) <.<.r.<.L J ^ <.^ 1._ T N P @.$.A.9X9XqXqX+X5X+Xc.e * $ @ * * ",
"* * * 9 d.5X>X;X4XrX0XI.S.y.q.] L m =.e.<.r.<.E J ^ <.^ 1.^ T N ^ -.7.t.P.8X0X1X<X|.<X|.b e = @ * * ",
"* * * s '.<X-X;X:XqX8XV.y.q.] ( E N <.r.<.r.1.E J ^ <.^ 1._ T B ,.<.8.9.#.V.I._.6X|.'.|.N.p = O * * ",
"@ % @ f.}.>X>X-X;XXXqXL.t.8.w.w.J N 1.r.<.1.1.T M >.r.>.1.^ R T ! <.8.q.7.#.8X;X<X+X+X+X|.f.$ e * * ",
"e = p M.-X>X>X<X<X.X1XL.9.w.w.w.J B _ 1.1.1.1.R M ^ 1.^ 1.^ V M Q >.;.8.-.O.8X;X>X+X+X+X%Xm.a % * * ",
"e . s |.>X+X+X3X%X.X1XL.9.w.w.w.R R Q 1.2._ >.W R ^ >.^ 1.^ R V Q >.;.8.-.O.8X3X<X<X<X<X3X|.k . * * ",
"= O s '.+X>X<X[..X.X1XL.9.;.8.` _ 1._ i.i.^ _ W 1.1.2.2.>.>.<.>.~ >.;.8.-.O.8X3X<X<X<X<X<X3Xg.% * * ",
"= $ a ].+X<X+X|..X.XXXL.X.( ( ( W Y Q _ i.Q _ W Q ^ ^ ^ E W E ! ~ >.;.-.-.o.oX3X<X<X<X<X<X<Xf.% * * ",
"= $ a ].>X+X|.+X.X.X.XJ.X.( ( ( R Y _ _ 1._ _ R R ^ >.^ 1.^ R V _ >.;.-.-.o.oX3X<X<X<X<X<X<Xf.% * * ",
"= $ a ].<X|.|.%X%X$X.XK.0.w.3.<.J Y _ 1.1._ <.Y B _ 1._ 2._ J M _ >.;.8.8.o.oX3X3X<X<X<X<X<Xj.* * * ",
"= $ a ].+X|.+X+X%X X.XK.0.3.w.1.B V _ 2._ 1.1.Y M _ r._ <.^ R V &.&.%.%.=.X.E.3X<X<X<X<X>X<Xj.* * * ",
"= $ a ].+X+X+X|.$X X&XK.0.3.1.1.W B _ 1.>.1.1.Y B >.<.1.1.<.J V C { } 6.[ | W.<X<X<X<X<X>X>Xl.= * * ",
"= $ a ].+X+X+X+X$X X&XK.0.3.1.1.W N _ 1.1.1.1.Y B >.<.1.1.<.V V &.5.a.a.[ | R..X<X<X<X<X+X|.l.= * * ",
"= $ a ].+X+X+X%X$X X&XK.0.3.1.1.W V _ 1.1.1.1.Y B <.<.1.1.<.V V ! *.} 6.%.0.E.;X<X<X<X<X+X|.c.9 * * ",
"= $ a ].+X+X|.|.%X X&XJ.0.<.3.<.W V _ 1.1.>.1.Y B >.>.<.1.<.V V 1.,.*.%.=.0.I.;X<X+X>X>X|.|.z.= * * ",
"= $ a ].+X+X|.|.=X$X&XJ.q.<.<.<.W V >.1.1._ 1.T V <.>.<.>.>.Y Y ` >.=.:.;.+.I.;X<X+X>X>X|.|.l.= * * ",
"= $ a ].+X|.|.+X=X$X&XD.0.<.<.<.R V >.<.1._ >.Y V <._ >.2.1.V B ` <.;.;.-.@.I..X+X+X+X+X|.}.l.= * * ",
"= $ a ].+X|.|.%X2X$X&XJ.0.3.w.<.R V <.<.1._ <.R J <._ _ <.<.Y Y _ _ ;.-.:.| Y. X+X+X+X+X|.}.l.= * * ",
"= $ a ].|.|.+X|.=X X$XH.0.;.<.<.R V <.<.1._ <.R J <._ _ W _ R Q _ ,.;.-.:.| Y.!..X+X+X+X|.}.l.= * * ",
"= $ a ].|.|.+X|.=X X$XH.0.3.w.1.2.^ r.^ i.r.<.<._ <.2.p._ <.<.1.4.4.r.e.-.9.R. X%X+X+X+X+X|.z.= * * ",
"= $ a ].|.|.+X|.=X.X$XH.X.( ^ ^ J M E J Q R J B B E W E R J J J R ! E P / t.I..X.X+X+X+X+X|.z.= * * ",
"= $ a ].|.|.+X|.1X.X&XH.t.e.e.r.T J 1.<.1.<.^ W J <.r.^ 1._ E Y _ _ =.;.( t.R..X.X+X+X+X+X|.z.= * * ",
"= $ a ].|.|.+X|.1X.X&XH.X.( ( ( J J r.r.2.<.^ Q J r.p.^ r.<.R V ,.,.>.;.( 9.)..X%X+X+X+X+X|.z.= * * ",
"= $ a ].|.|.>X|.1X.X&XH.0.3.w.<.^ N ^ <.^ 1.=.J J =.1.^ 2.^ E B _ _ =.;.8.O.)..X%X+X>X>X+X|.z.9 * * ",
"= $ a ].|.|.+X|.1X.X&XH.0.w.w.<.^ N ^ <.^ 1.=.J J =.1.^ 2.^ E V _ _ =.;.8.O.(..X%X+X>X>X+X|.z.9 * * ",
"= $ a ].|.|.+X|.1X.XXXH.0.w.w.w.^ N ^ <.^ 1.^ J J =.1.^ 2.^ E V _ _ =.;.8.O.(..X%X+X>X>X+X|.z.= * * ",
"$ * a ].|.|.+X|.1X XXXD.0.3.<.<.^ N ^ <._ 1._ J J _ 1._ 1._ E V &.~ _ ( 8.O.(..X%X+X>X>X+X|.z.= * * ",
"@ * h >X>X>X<X%X#XW.W.Z.7.=.,.,.Y R ^ ^ ^ 1.1.Q T <.2._ 2._ T M &.&.' ' w.t.R.%X%X+X>X>X+X7Xx.. * * ",
"= O y '.>X>X<X%X%XW.W.Z.@. .:.! L P / / / 8.8.P K / 8./ 8./ L K :.:._ ` 7.#.T.+X|.|.|.|.}.>Xx.= * * ",
"@ % s {.>X>X<X<X<X[. Xv.D A A A A A H F S F H Z n F G S G F F S S S H H F U `.eX7X3X3X3X<X].k.9 * * ",
"O * % z z z c z z j k d > > > > > > 4 5 : , , :   , 3 > , 3 3 3 3 , < < 3 2 x x b k k k f l p * * * ",
"% * * * % % % % 6 6 % % $ $ X X X # # # # # # # & & & & & & & & 1 1 2 2 1 = w w * $ $ $ * * * * * $ ",
"* * * * % % % % % 8 * * $ $ $ $ $ $ $ $ * * * * 6 6 6 0 0 0 0 7 7 7 & & = * q w * $ $ $ * * * * * * ",
"8 * * * % % % * + + $ $ * * = = = = $ * * * * % 6 0 0 0 0 0 0 0 7 7 * & = $ 6 6 * * $ $ $ $ $ * * * ",
"8 8 * * % % $ * + + $ $ * * = = & & * * * * * % 6 0 0 0 0 0 0 7 7 7 * * $ $ * * * * * $ $ $ * * * * ",
"* * * * * * * $ $ * * * * * * * * * * * * * * * 8 8 8 8 8 8 8 6 * * * * * * * * * * * * * * * * * * ",
"* * * * * % * $ % % * * 8 8 8 8 8 8 8 8 8 8 * * * * * * * * * * * * * * * * * * * * * * 6 6 6 6 * * "
};
