/* XPM */
static char *_8361ec441004e74f3af6c547daf3360xwHjbRoWKdrAyrer[] = {
/* columns rows colors chars-per-pixel */
"50 50 194 2 ",
"   c #D5AE6A",
".  c #D8AF6B",
"X  c #D5B169",
"o  c #D6B069",
"O  c #D6B268",
"+  c #D6B26A",
"@  c #D7B36B",
"#  c #D6B26C",
"$  c #D7B36D",
"%  c #DAB269",
"&  c #D9B06A",
"*  c #D8B16A",
"=  c #DAB16B",
"-  c #D9B26B",
";  c #DCB36A",
":  c #D8B56A",
">  c #DAB46A",
",  c #DBB56B",
"<  c #D9B66B",
"1  c #DDB46B",
"2  c #D9B06C",
"3  c #D8B16C",
"4  c #DAB16D",
"5  c #D9B26D",
"6  c #DAB36C",
"7  c #DAB36E",
"8  c #DCB36C",
"9  c #DCB26E",
"0  c #DDB36F",
"q  c #D8B46C",
"w  c #D9B56D",
"e  c #DBB56D",
"r  c #DBB76C",
"t  c #D8B46E",
"y  c #D9B56F",
"u  c #DBB46F",
"i  c #DBB76E",
"p  c #DDB46D",
"a  c #DCB66C",
"s  c #DCB66E",
"d  c #DDB76E",
"f  c #DCB86E",
"g  c #DFB86F",
"h  c #DBB671",
"j  c #DCB571",
"k  c #DEB571",
"l  c #DDB770",
"z  c #DCB772",
"x  c #DDB772",
"c  c #DFB672",
"v  c #DCB870",
"b  c #DDB971",
"n  c #DFB871",
"m  c #DEBA70",
"M  c #DDB873",
"N  c #DFB873",
"B  c #DEBA72",
"V  c #DFBB73",
"C  c #DFBC71",
"Z  c #DEBA74",
"A  c #DFBB75",
"S  c #DEB976",
"D  c #DFBA77",
"F  c #DEBC75",
"G  c #DFBD76",
"H  c #DEB978",
"J  c #DFBA79",
"K  c #E0B773",
"L  c #E0BA70",
"P  c #E1BB71",
"I  c #E1B872",
"U  c #E0B972",
"Y  c #E1BA73",
"T  c #E0BD72",
"R  c #E2BE73",
"E  c #E1B874",
"W  c #E0B974",
"Q  c #E2B975",
"!  c #E1BA75",
"~  c #E2BB76",
"^  c #E4BA76",
"/  c #E0BC74",
"(  c #E2BC74",
")  c #E3BD75",
"_  c #E2BE75",
"`  c #E3BF75",
"'  c #E0BC76",
"]  c #E3BF77",
"[  c #E5BC75",
"{  c #E4BE77",
"}  c #E0BB7A",
"|  c #E4BA78",
" . c #E5BB7A",
".. c #E0BC78",
"X. c #E3BC78",
"o. c #E2BD78",
"O. c #E0BE78",
"+. c #E1BF79",
"@. c #E3BE79",
"#. c #E2BD7A",
"$. c #E3BE7B",
"%. c #E5BC78",
"&. c #E6BD79",
"*. c #E4BE79",
"=. c #E7BE78",
"-. c #E6BF78",
";. c #E4BF7A",
":. c #E7BE7A",
">. c #E6BF7A",
",. c #E2BC7C",
"<. c #E3BE7D",
"1. c #E7BD7C",
"2. c #E4BF7C",
"3. c #E4BF7E",
"4. c #E8BF7B",
"5. c #E8BF7D",
"6. c #E2C07A",
"7. c #E4C078",
"8. c #E5C179",
"9. c #E7C079",
"0. c #E4C17B",
"q. c #E5C17B",
"w. c #E7C07B",
"e. c #E6C27A",
"r. c #E7C37B",
"t. c #E5C07D",
"y. c #E5C37C",
"u. c #E6C27C",
"i. c #E7C37D",
"p. c #E5C07F",
"a. c #E6C17E",
"s. c #E6C47D",
"d. c #E7C57E",
"f. c #E8C17A",
"g. c #E9C37B",
"h. c #EBC27B",
"j. c #E9C07C",
"k. c #E8C17C",
"l. c #EBC17D",
"z. c #E9C27D",
"x. c #EAC37E",
"c. c #ECC37C",
"v. c #ECC37E",
"b. c #E9C57C",
"n. c #EAC47C",
"m. c #E9C47E",
"M. c #EBC57E",
"N. c #EAC67E",
"B. c #EDC47E",
"V. c #EEC57F",
"C. c #EDC67F",
"Z. c #E6C180",
"A. c #E7C281",
"S. c #ECC281",
"D. c #EDC382",
"F. c #E9C481",
"G. c #EBC480",
"H. c #EAC580",
"J. c #E9C781",
"K. c #EBC681",
"L. c #EDC480",
"P. c #EEC581",
"I. c #EDC681",
"U. c #EEC780",
"Y. c #EFC682",
"T. c #EEC782",
"R. c #EFC684",
"E. c #ECC880",
"W. c #EDC981",
"Q. c #EFC881",
"!. c #ECC882",
"~. c #EDC983",
"^. c #EFC883",
"/. c #ECCA83",
"(. c #EECA82",
"). c #EDCB84",
"_. c #EECA84",
"`. c #EECC85",
"'. c #F0C783",
"]. c #F0CC83",
"[. c #F0C984",
"{. c #F2C884",
"}. c #F1CA85",
"|. c #F0CB85",
" X c #F3CA85",
".X c #F2CB87",
"XX c #F1CC87",
"oX c #F2CD88",
"OX c #F3CF89",
"+X c #F5CC88",
"@X c #F5CE89",
"#X c #F6CF8A",
"$X c #F4D08A",
"%X c #F9D48F",
/* pixels */
"<.<.<.} J J S S b b ( ' e.m.W.W.W.W.].].}.}.}.}. X'.L.z.;.4.;.;.....S S b j j j b b W W W W ;.;.....",
"<.<.<.} J J S S b b ( ( 7.e.e.e.m.m.m.m.F.F.L.L.L.v.e.;.;.^ W W W W b j j h j j b b W W W W ;.;.;...",
"3.3.3.<.} J S S b b C C ( C ' ' ' ' e.e.;.;.;.;.4.;.;...W W W W b b b b S b S S W W ;.;.;.;.z.z.p.p.",
"p.p.p.<.<.} ..S b b C b b b b b b b ' ' ........;.;...W W W b Y b b b S S W ....;.;.z.B.L.z.z.z.m.F.",
"Z.Z.Z.3.<.<...' ' ' b b b b b b W W W W ^ ^ ;...^ W W j K K b b j j b S F ..e.p.z.z.}.}.}.L.F.z.z.z.",
"Z.Z.A.p.3.......' ' ' b b b b b b W W W W W W W K j r r j j j j j b ' ' ..e.m.W.'.}.@X@X}.L.z.;.;.;.",
"F.F.F.p.p.3.;...e.' ' b b b r r j j j j j j j j 0 0 6 6 s j j j b ' ....e.m.W.XX}.'.L.F.z.z...W W W ",
"m.m.m.p.p...;...e.e.' ' b b r r r r 6 6 6 6 6 6 0 6 s s j j Y W S ' ..e.m.W.XXXXz.;.b W ....W j j Y ",
"e.e.e.;.......e.e.e.p.e...b j j r r r 6 6 6 6 6 6 6 j b S S ..' ..e.m.F.W._.}.F...W W j K K j j j j ",
"' ' ' ' ....' e.e.p.m.p.z...Y j j j j j 0 0 0 0 j j W W ' ..;.p.F.W.XXOX}.F.p...W W W Y K K j j j j ",
"r r f b b ' ' ' p.m.m.m.z.z...W Y W W b j j j j S b ' ....;.p.F.).).W.F.p...S S W W W Y K K j j j j ",
"O O < < b b b ' ;.p.m.m.z.z.z...W W W W W K W W W W ....p.p.F.W.J.s.6...S ' S S W W W W W K j j j j ",
"O O O O r r r r Y e.z.z.v.v.z.;. . . . .W W W W W W ..e.m.W.W.F.p.....F S ' ........;.....W ....^ ^ ",
"O O O O $ $ O $ r ' z.z.v.v.v.z.5.5.5.3.;.;.;.;.;.;.e.p.F.W.F.p.........;.;.p.p.z.z.z.z.z.e.;.;.;.;.",
"O O O O $ $ $ $ - r ( e.h.v.v.v.D.D.D.D.v.z.z.z.z.z.F.F.W.F...S F ..6.e.p.p.F.F.L.L.L.L.L.z.z.z.z.4.",
"r O O O O O r r 6 - s Y ;.h.B.B.L.R.R.R.'.L.L.L.L.L.W.W.W.s.' h F ..6.s.F.W._._.}.W.}.W.W.L.L.L.z.z.",
"b b r O   6 s j s 6 6 s Y ' e.h.z.F.L.W.}.@X@X@X$XXXW.m.p.;.' ..' ..e.F.W._._.W.W.W.W.W.L.L.A.F.v.z.",
"' ' b r 6 6 s j s r r r r s b ' ;.z.z.L.L.W.W.'.W.m.e.......;.....e.F.W.W.W.F.F.p.p.p.p.z.z.z.z.z.z.",
"e.e.' b j j 6 6 6 r < < r r r j Y ' ;.e.e.;.;.;.;...........;.;.e.F.W.F.m.p.;.....' ' ' W W ;.;.;.;.",
"W.m.e.[ W b - - - 6 < < 6 6 6 r s b Y Y W j b b S S ..' ....;.;.p.W.W.W.' S S b j h h h j N W W W ^ ",
"L.F.F.z.;.W r - . - - - 0 0 0 0 r s j b b S ' S S S S S ;.F.OX%Xm.F.p.S h h h r r $ $ $ 6 6 r h j j ",
"e.z.F.F.z.;.Y s s s 1 ; 0 - 0 0 r r j b S S ' ' ........e.F.W._.F.e.S j r r r r $ $ $ $ 6 6 r r j j ",
"j W z.L.L.z.[ Y Y Y f s r 6 - - r r j b S S ..;.e.p.p.m.m.z.;.;...S S b b j j h $ $ $ $ 6 6 r r j j ",
"6 j ;.z.L.L.h.[ [ [ Y Y j s r s s s j b S S ' ;.L.L.F.F.F.e.S h S S S S S b b j $ $ r r 6 6 h r 6 6 ",
"6 0 K  .z.L.L.z.e.;.' ' ' ' [ [ ;.e.e.p.m.F.F.p.L.L.F.s.p.......' ' ' ' ' ' ' S ;...S S 6 6 6 6 6 6 ",
"0 0 j j ^ v.'.L.m.h.e.;.;.;.h.h.p.p.m.m.m.m.F.m.p.e.e.;.......................' ;...' S b j j j j j ",
"6 6 j j K ^ v.L.W.B.m.p.p.p.m.m.F.F.F.F.F.F.m.F.F F ' ' ' ' ........;.;.e.;.;...;...........W W W W ",
"6 6 6 r j j ^ z.m.L.W.F.F.F.L.L.W.W.W.F.F.m.p.F.b j b S ' ' ........e.e.e.p.p.p.p.....p.e.;.;.;.;.;.",
". . 6 0 0 0 j W ;.z.F.W.L.F.F.F.F.F.F.p.p.;.e.W b b S W ' ..;.;.e.e.e.e.h.e.m.m.L._.}.F.z.z.z.z.z.z.",
"6 6 0 0 0 0 r j j W ..p.z.z.z.z.p.p.p.;.........' ' ............' ' e.e.e.e.m.m.F.F.F.W.L.L.z.z.z.z.",
"j j b W j 0 6 6 r j j W W W ' W ' ' ' ' ........;.e.p.e.;.......' ' e.7.' ' ' ' ..;.e.e.z.L.W.F.z.z.",
"W W W ..^ W j r r r r j j b b b S S S ' ....;.;.F.F.F.z.;...' ' ' b ' C b b b b F ' ....;.e.z.z.z.e.",
"....;.e.;.;.W W j j r j j W W W W W ;.;.;.e.z.z.L.L.F.F.' Y Y b Y Y s s b Y Y Y Y Y Y Y W W W ..[ ' ",
"....;.e.e.;.;.;.W W j j W ..;.;.e.e.z.z.z.z.z.z.F.F.F.F.Y b b j b b 6 6 s j j j j j j j j j b b b b ",
"....;.e.e.e.e.;.;.;.W W ..;.e.e.z.z.z.z.z.z.z.z.F.F.F.F.Y b b j j s 6 - - - - - - - - - 6 6 r r r r ",
";.;.p.p.z.z.z.z.z.;.;.;.h.z.z.z.e.e.z.z.z.z.z.z.F.F.z.F.Y j j s s r 6 - - O O O O O - - 6 6 6 6 6 6 ",
"e.e.p.m.z.z.z.F.z.z.e.z.v.v.v.4.;.;.z.z.z.z.F.z.z.z.;.b j b s s s s r - - - - - O O - - 6 6 6 6 - - ",
";.;.p.p.z.z.z.m.z.z.z.z.z.v.4.;...;.e.z.z.z.L.F.z.;.b j s j s s s s r 6 6 - - - - - - - 6 6 h h r r ",
"S S ....;.;.;.;.e.z.F.z.;.;.W K W ;.e.z.z.z.L.L.;.Y j j s s s s s s r 6 6 - - - - - - - 6 h j j j Y ",
"j j S S W W W W W ..;.;.^ K 0 j W ;.e.z.z.z.L.L.W j j j s s s s r r 6 6 6 - - - - - 6 6 r j b W Y ' ",
"6 6 j j j r j j j j j K K 0 0 K W ;.e.z.L.L.z.W W b b b b j j j s s r 6 6 6 r r r r j b W W ....[ [ ",
"6 6 j j 6 6 6 6 0 0 0 0 0 0 j W ..e.z.L.L.z.W j W W W W W W W W b b j j j j b b W W W ..;.e.z.z.h.h.",
"0 0 j j r 6 6 6 0 0 0 0 0 j K W ;.z.L.L.z.W j r W W W ..;.;.;.;.[ ' [ ' ' ' ' ' ;.;.;.z.z.L.L.L.L.L.",
"0 0 j j h 6 6 6 0 0 0 0 j K W W z.z.z.z.W j j j j b W W z.z.F.z.h.e.h.e.e.;.e.h.z.z.A.F.L.L.}.}.W.W.",
"j j W W j s s s r r r j W W ..;.z.z.z.z.j j j j s s s s ;.h.B.W.F.z.z.z.z.z.z.z.L.L.L.L.L.L.F.F.m.m.",
"W W ;...W K Y Y b b b W ..e.z.e.;.;.;.;.j j j r s 6 6 6 j ' h.B.L.F.z.z.z.z.z.z.z.z.L.z.z.z.e.e.e.e.",
"e.e.z.z.;. ...........;.e.z.z.e.;.;...;.j j j r r r r 6 6 j ' h.F.F.z.z.z.e.z.z.z.h.e.;.;...W W ' ' ",
"z.z.F.z.z.;.;.e.e.e.z.z.z.z.z.;.....W ..b j j r r r r 6 - 6 Y ' z.z.e.e.e.;.e.;.;...W W W W b b Y b ",
"F.F.F.F.F.F.F.F.F.F.F.F.F.m.e.....' ' W W b s 6 s s < < < < s j ' ' ;.[ [ [ ' ' Y Y Y b j j s s s s ",
"F.F.F.F.F.F.L.L.L.L.L.L.F.F.e...' W W W W W s 6 s s < < s s s s b b [ ' ' [ ' Y Y Y b b j j s s s s "
};
