/* XPM */
static char *_941fdc55c184874f804f1256c0071f9JLBeNdAmcnedJ6X6[] = {
/* columns rows colors chars-per-pixel */
"50 50 256 2 ",
"   c #B6700F",
".  c #B3782B",
"X  c #BC5801",
"o  c #D46B02",
"O  c #C67903",
"+  c #DC7400",
"@  c #D87A04",
"#  c #C67B19",
"$  c #D67215",
"%  c #E86A08",
"&  c #E87806",
"*  c #F07A17",
"=  c #D15C25",
"-  c #C57735",
";  c #D6712B",
":  c #F57D2D",
">  c #BE7F54",
",  c #D17540",
"<  c #BA8518",
"1  c #B08A28",
"2  c #ADA23D",
"3  c #C68605",
"4  c #D98A03",
"5  c #D29113",
"6  c #EC8A0C",
"7  c #E98506",
"8  c #F4830B",
"9  c #F88B0D",
"0  c #EA990B",
"q  c #F3950D",
"w  c #F29C0E",
"e  c #FA9609",
"r  c #EA8C17",
"t  c #FD8B12",
"y  c #F98A18",
"u  c #EB9816",
"i  c #F39414",
"p  c #FB9415",
"a  c #F59B13",
"s  c #FA9A13",
"d  c #FD941B",
"f  c #F49C1C",
"g  c #FD9C1A",
"h  c #F6911B",
"j  c #DCA519",
"k  c #DEB81A",
"l  c #F2A10D",
"z  c #FBA606",
"x  c #ECA31C",
"c  c #ECAC1C",
"v  c #E7A515",
"b  c #F4A214",
"n  c #FCA414",
"m  c #FDAA15",
"M  c #F4A31C",
"N  c #FCA31C",
"B  c #FCAA1B",
"V  c #F5AA1A",
"C  c #E8B51C",
"Z  c #FDB41D",
"A  c #FCB81B",
"S  c #D78926",
"D  c #D7982A",
"F  c #CD8B32",
"G  c #E4972A",
"H  c #FE9C22",
"J  c #F99827",
"K  c #E88C39",
"L  c #FB8238",
"P  c #FC9B36",
"I  c #EA9332",
"U  c #DCA531",
"Y  c #E9A629",
"T  c #F5A221",
"R  c #FDA423",
"E  c #F4AD23",
"W  c #FDAB23",
"Q  c #FDA62B",
"!  c #FEAB2B",
"~  c #F4A72C",
"^  c #EDB92D",
"/  c #F6B324",
"(  c #FCB424",
")  c #FCB32D",
"_  c #FCBA2B",
"`  c #F7B829",
"'  c #E5A938",
"]  c #F9A938",
"[  c #EBB837",
"{  c #FEB333",
"}  c #F2BD31",
"|  c #FEBC33",
" . c #FDB33D",
".. c #F7B93A",
"X. c #FDC81A",
"o. c #FBF71C",
"O. c #FDC524",
"+. c #FDCB2C",
"@. c #F7C725",
"#. c #FED229",
"$. c #FDC435",
"%. c #FFCC35",
"&. c #FEC33A",
"*. c #FECC3B",
"=. c #F3C533",
"-. c #EDDD39",
";. c #FED435",
":. c #FFDD35",
">. c #FCD33C",
",. c #F6D83A",
"<. c #EDD028",
"1. c #FDE82A",
"2. c #FCF62A",
"3. c #ECE637",
"4. c #FAE735",
"5. c #FEF638",
"6. c #C58848",
"7. c #D98949",
"8. c #D79949",
"9. c #CD9358",
"0. c #ED924B",
"q. c #D7A347",
"w. c #D1B152",
"e. c #EAAC48",
"r. c #FCAC46",
"t. c #EAB747",
"y. c #FBB343",
"u. c #F8B947",
"i. c #E6BA5E",
"p. c #F9BA54",
"a. c #F3A957",
"s. c #D49866",
"d. c #C89A6A",
"f. c #F09A7A",
"g. c #D9A664",
"h. c #D9AF73",
"j. c #EBB26C",
"k. c #DCC551",
"l. c #FDC948",
"z. c #FFD542",
"x. c #FDDB45",
"c. c #FBDB4A",
"v. c #FAC957",
"b. c #FDDC57",
"n. c #EAC74F",
"m. c #F8E648",
"M. c #FBF748",
"N. c #FFE35C",
"B. c #FEE854",
"V. c #FCF957",
"C. c #ECE948",
"Z. c #DCCC6D",
"A. c #EBC966",
"S. c #F9C865",
"D. c #FFDE63",
"F. c #FCD467",
"G. c #FBDA76",
"H. c #F3C975",
"J. c #FDE568",
"K. c #FBF966",
"L. c #FFE576",
"P. c #FFEB7C",
"I. c #FCE87A",
"U. c #FEFD74",
"Y. c #FDF879",
"T. c #E9EE6E",
"R. c #DBBA96",
"E. c #D8AE8A",
"W. c #E9B38D",
"Q. c #FBBEAA",
"!. c #D6C688",
"~. c #DBD08C",
"^. c #FCDC86",
"/. c #FCDC95",
"(. c #E9D48E",
"). c #FEE582",
"_. c #FEE989",
"`. c #FDFB8C",
"'. c #FBF886",
"]. c #FFEE93",
"[. c #FAEC9A",
"{. c #FDFC94",
"}. c #FDFD9C",
"|. c #FAF697",
" X c #EAEF90",
".X c #DBC8AE",
"XX c #E7C7A9",
"oX c #E9D5B8",
"OX c #F8D9B5",
"+X c #F4CAB4",
"@X c #ECE8A8",
"#X c #FEE8A8",
"$X c #FDFCA4",
"%X c #FDFBAB",
"&X c #F8F6A9",
"*X c #EEEBB5",
"=X c #FCE9B3",
"-X c #EDF6B7",
";X c #FDFBBA",
":X c #F9F6B6",
">X c #EFFCA8",
",X c #DBE88B",
"<X c #E7D6C3",
"1X c #F9DBC7",
"2X c #F3DCD5",
"3X c #EDEDCC",
"4X c #E9E5C9",
"5X c #F8EAC8",
"6X c #EAF5C7",
"7X c #F5F1C5",
"8X c #FFF3C4",
"9X c #FFFAC5",
"0X c #FCF4CB",
"qX c #FDFACC",
"wX c #F5F9CA",
"eX c #EBECD9",
"rX c #F8EBD8",
"tX c #EEF2DB",
"yX c #ECF1D4",
"uX c #F4F3D3",
"iX c #FDF6D3",
"pX c #F4FBD6",
"aX c #FCFBD4",
"sX c #F5F4DB",
"dX c #FCF5DA",
"fX c #FCFCDA",
"gX c #F5FADB",
"hX c #DEF5FE",
"jX c #EAEDE2",
"kX c #F8EBE6",
"lX c #F3F3E2",
"zX c #FBF5E4",
"xX c #FDFBE4",
"cX c #F5F5EB",
"vX c #FBF6EC",
"bX c #F6F9EB",
"nX c #FBFAED",
"mX c #F6F9E5",
"MX c #FCEDF6",
"NX c #EEF9FB",
"BX c #E9F8F5",
"VX c #F5F7F5",
"CX c #F6F6F3",
"ZX c #FAF5F4",
"AX c #F4F9F4",
"SX c #F8F9F2",
"DX c #FAF9F2",
"FX c #F8F9F5",
"GX c #FCFCF3",
"HX c #F5F5FC",
"JX c #F8F6FE",
"KX c #FBF5FB",
"LX c #F4FAFB",
"PX c #FAF9FA",
"IX c #EDF7E8",
"UX c #D6D4D0",
/* pixels */
"SXSXSXSXSXSXSXPXJXJXJXPXPXFXCXcXCXJXKXKXKXKXKXMXMXMXMXZXSXAXAXAXSXDXDXSXSXvXnXZXHXHXHXVXSXbXmXbXSXFX",
"SXSXSXSXSXSXSXPXJXJXJXVXcXcXGXGXGXnXvXcXkXkXkXkXrXrXeXeXtXtXsXlXcXcXvXvXvXvXnXSXHXHXHXVXSXbXbXbXSXFX",
"SXSXSXSXSXSXFXPXJXJXPXVXcXbXnXxXdXiX0XuX3X3X6X6X6X6X6X6X7X5X8X0XsXlXlXzXzXzXnXnXVXHXVXFXSXSXSXSXSXSX",
"SXSXSXSXSXSXFXVXPXFXFXGXGXmXmXsX0X0X0XwXwXwXwXwX6X6XwXwX9X8X8X0XsXsXuXeXzXlXmXbXCXVXVXVXVXVXVXCXSXSX",
"SXSXSXSXSXSXFXSXCXSXGXGXlXgXtXpXpXpXpXaXaXiXiXiXaXwXaXaXaXaXaXfXfXsXuXyX4XuXgXxXnXCXCXVXVXVXVXVXFXFX",
"FXSXSXSXSXSXFXSXGXnXcXlXsXgXpXpXpXpXfXfXdXdXdXiXfXaXfXfXfXaXfXfXfXfXfXfXaXuX3X3XbXnXCXCXVXVXHXHXFXFX",
"FXFXSXSXSXSXSXSXnXcXtXyXfXfXfXaXaXaXaXaXaXaXaXaXiXiXqXqXaXaXaXaXaXaXaXfXfXaX3X3XeXbXnXCXVXHXHXHXVXVX",
"PXPXFXFXFXSXSXSXeXeXsXfXfXfXfXaXqX9X8X8X8X8X8X8XOX=X=X=X8X9X9XqXqXaXaXqXiXaXfXfXuXsXzXnXJXJXJXJXVXVX",
"JXJXPXPXFXFXcXjX4XxXxXuXfXfX8X;X%X[./.H.0.7.= = = = = - 7.g.H./.:X;X8X8X0X0XiXaXiXuXsXzXSXJXJXJXVXVX",
"JXJXPXPXFXcXtXtXsXuXiXaXqX=X9X;X_.p.S   X $ : : L L L K ; #     g.=X:X=X8X0X0XqXqX0XuXdXnXZXJXJXVXVX",
"JXPXFXSXmXyXyXuXfX7X*X9X#X=X#Xj.# @ r ~ y.y.t.t.U ' e.] ] P I I 1 . (.#X=X:X9X9X9X9X7XiXxXnXZXKXVXVX",
"PXVXSXnXyX6XwXwX9X;X:X#X%X#Xg.. I J J Y t.t.k.k.P.L.F.t.u.y.] ] F F . j./.#X:X;X;X;X:X0XiXxXvXDXVXVX",
"PXCXzXxX6X-X-X;X%X%X%X[.^.q.. K r.r.r.p.i.Z.Z.Z.%X].G.H.i.S.v.u.p.8.8.1 8.^.].[.%X%X:X:X7XiXdXvXSXZX",
"GXcXsXuX-X-X>X%X$X].].).q.  I r.r.p.S.H.^.[.%X;X;X:X&X[._.G.A.n.p.y.p.e.< F ].].$X$X&X:X:X7XuXsXSXZX",
"CXnXgX7X-X>X>X{.{.`.G.t.  G v.r.u.v.G.^.$X&X&X*X*X:X:X%X$X'.I.J.t.y...u.' D F ).{.}.$X&X:X-X7XuXvXZX",
"CXnXqX-X>X}.{.'.'.P.t.< D y. .u.p.S.).].$X&X:X;X;X:X&X[.%X{.`.'.n.l.[ u.y.D D U `.{.|.}.&X&X-X7XzXZX",
"HXnX&X'.{.`.`.'.I.I.3 ' .... .u.A.).].].$X|.}.[.,X X X}.}.`.{.`.J.v.t.t.p.y.G S b.P.P.`.{.|. X*XzXZX",
"JXlX|.Y.'.'.'.'.G.e.G ~ [ [ ..t.A._.]._.].].Z.2  X{.w.w.{.'._.).L.b.v.u.y.y.] G [ D.U.Y.'.'.'. XfXSX",
"JXuX XU.Y.Y.Y.Y.G.# ] { } } ..u.A.)._.).)._.w.1 A.'.q.U P.F.S.v.u.t.u.l.y.]  .] 5 v.U.U.Y.'.'.,XaXDX",
"ZX3X'.K.U.U.U.U.v.   .| ` ` { ..v.L.L.L.L.P.w.k.J.P.u.S D <     3 5 Y u.] ]  . .5 [ J.K.K.Y.U.T.qXnX",
"vX*XT.K.K.K.K.K.' r. .T ` ` ) { l.P.D.J.D.D.D.D.b.v.y.] 5 3 Q ~ Y Y ~ ~ ! ! ! ! Y j N.B.V.C.K.T.*XzX",
"xX*XT.V.V.V.V.B.U  .! W Z ( ( ) [ N.N.N.b.b.b.N.N.N.l.l.^ Y ~ T | { ) ! ! ! Q ! ! j x.B.V.M.M.K.@XdX",
"fX@XT.M.M.V.M.,.5  .N W V ( W ! j =.B.B.b.b.b.B.B.B.B.B.c.c.=.| v x E E W W Q W ) j =.M.M.M.5.K.@XsX",
"aX[.V.M.3.M.M.,.Y Q g W m Z W W v 5 z.z.c.c.c.m.C.C.m.m.m.V.,.m.` ( E W W R R R ) v ;.M.5.5.2.V.(.uX",
"0X(.M.2.2.5.5.+.x H n B m B W W x 4 4 E x.x.>.,.-.3.-.,.C.m.m.,.%./ E V N R R W c C <.4.5.2.o.M.~.4X",
"7X(.M.2.2.5.4.+.x T B m m B R R W f 7 O 3 j $.z.,.,.x.x.m.m.x.z.*._ E W N B N N C k <.1.2.2.o.M.~.4X",
"5X~.m.1.2.5.4.+.x T B m m B B T R ! ! i 3 3 O 4 *.*.$.$.>.x.>.>.*.$./ E T T B V c C <.1.1.1.o.C.~.4X",
"5X~.m.1.2.5.4.+.c T V B n n N R R R g p W u 4 4 *.$.v 5 =.>.&.$.*.*.| E M N N M c C @.:.1.1.1.C.~.4X",
"5X!.m.5.4.4.4.x.E M b l b n N R &.! H ! ! ! R f _ | u O j } | | *.$.E v M N N b c C +.:.:.4.1.m.!.3X",
"rX!.c.4.3.3.:.z./ M b l b b M M l.| { { l.| g i ) | T 4 j } | | *._ c u M M M b c C +.;.:.:.:.b.!.3X",
"rX!.n.<.3.-.,.z.) M b l w b f x } &.&.| | _ ! ! ` ^ | j j =.*.$.$./ x u T N M b v C +.;.;.;.;.v.!.3X",
"rX!.n.<.-.,.;.%.` M l 0 w a a f v } &.) &.| ! T &.^ ` c } } $.$._ / x f T N a a v C +.;.+.%.*.v.!.yX",
"iX~.i.v.z.#.#.#._ V 0 0 w a a f 4 T { { ) { { { ) ` ) ) ) ) ) ) V 4 4 r f f a l c @.#.#.O.%.$.q.XXkX",
"fXXXh.i.l.%.X.X._ E v 0 w w a a @ i R ! ! ! ! ! ) ) ) ) ) ) ! W 4 4 u f f a a b Z O.#.+.O.$...i.oXCX",
"xXoXh.i.u.| X.X._ ( b l w w a i 6 7 6 i H R ! ! ! W R W R T u 0 @ 7 f R r i n B A O.O.O.%...t.j.rXZX",
"nX4XR.g.p.| ( A ( ` ( V w q q i H 7 + + 7 r H R H R R R i 6 @ @ 4 q f i 6 i B Z A O.X.@.l.t.i.W.rXJX",
"AXnXOXs.8.y.) b ( _ ( B b w q i 9 p 8 & + + + + R d 7 + o + 7 6 q s i r h R W A A A ( ` u.q.h.+XkXPX",
"BXFX1XW.8.r.{ W ( ` ( W B a i q 9 d d 8 8 8 8 8 H d t 8 & 8 9 p e e 6 h H Q W Z A A ( ..e.g.W.1XZXPX",
"hXBXrX+Xs.0.Q ! / ( _ ( W B g p p t p t t t t t t t t t t t t t e 7 i H H Q W m m m B ~ 8.h.+XkXKXPX",
"hXBXkX5XW.7.I  .E Z A Z B B N g d p 9 9 t t t t % & & 8 9 8 8 7 9 s g B N N n n n N ~ e.6.E.2XKXKXPX",
"BXBXZXvX+XE.9.D _ z z z z m B N W N p 9 9 9 9 6 6 6 7 7 7 6 i i f T B n z z z n H P K 6.d.oXvXVXPXPX",
"BXBXHXZX2XXXh.8.Y l l z z e e R g g N N N g s i i q q i s N N T ~ ~ b l z z z g P 0.7.s.XXrXGXBXLXPX",
"BXNXPXZXkX1XR.g.S ~ W 7 e g g t p g g N B B N g g g a a N B B R T J a l l n N P K 7.s.W.5XvXFXBXLXFX",
"NXNXPXSXzXdXoXE.8.S S ] J y t p g a g q q s g a g g g a s s a a f f a b M R P 0.7.s.W.+XrXkXVXLXPXFX",
"NXNXPXCXnXvXkX<XXX9.6.7.r.P d t s s s s s a s s s s s s s s s s i r i Q ] P K - d.R.1XzXvXZXHXHXHXFX",
"HXHXAXSXGXFXPXkX<XXXE.> - K P g p q q s s s s s s s s s s s s s i H R J G K 7.s.R.<XsXnXZXHXHXHXVXFX",
"HXHXAXAXAXLXLXLXVX2X.XE.9.- $ f a s s q a q s s s s s s s s s p p H H r K 7.f.Q.4XIXIXVXHXJXJXJXVXFX",
"HXHXPXAXAXLXLXLXPXVXkX<XR.h.F # S r J d d p p s d p p p d d d J J S # F j.W.+X2XnXAXNXNXHXHXJXJXVXFX",
"HXHXPXFXFXPXHXHXVXVXZXvX2X<X.XR.6.- ; : * y J P J J d d y * * ; , 9.h.!..X<XkXKXKXPXHXLXLXHXJXKXJXVX",
"HXVXPXVXJXPXJXJXVXZXCXCXjXeXUX.XXXf.0.: % % o o $ % % % % * L 0.f.W.oX4XjXBXPXKXKXKXHXHXLXPXJXKXZXFX"
};
