/* XPM */
static char *_78_resized[] = {
/* columns rows colors chars-per-pixel */
"100 100 65 1 ",
"  c #2D2E2D",
". c #2F302F",
"X c #30312F",
"o c #343433",
"O c #383735",
"+ c #373836",
"@ c #393937",
"# c #3C3C39",
"$ c #403F3C",
"% c #42413E",
"& c #464441",
"* c #494743",
"= c #4C4946",
"- c #4F4C48",
"; c #514E4A",
": c #55524D",
"> c #58544F",
", c #5A5651",
"< c #5E5954",
"1 c #615C57",
"2 c #635E59",
"3 c #66615B",
"4 c #69645E",
"5 c #6D6660",
"6 c #6F6862",
"7 c #736C65",
"8 c #766F68",
"9 c #777069",
"0 c #7B736C",
"q c #7F7770",
"w c #7F7871",
"e c #807770",
"r c #837B73",
"t c #887F77",
"y c #887F78",
"u c #8C837A",
"i c #91877E",
"p c #92887F",
"a c #958B82",
"s c #998E85",
"d c #9B9087",
"f c #9D9389",
"g c #A1968D",
"h c #A4988F",
"j c #A69A91",
"k c #AA9D94",
"l c #ADA097",
"z c #AFA299",
"x c #B3A495",
"c c #B8A690",
"v c #B3A69D",
"b c #B6A89F",
"n c #B8AA9F",
"m c #B7A9A0",
"M c #BBAEA3",
"N c #BEB0A5",
"B c #C0B2A7",
"V c #C3B4AA",
"C c #C7B8AD",
"Z c #C8B9AE",
"A c #CCBCB1",
"S c #D0BFB5",
"D c #D2C1B7",
"F c #D5C3B9",
"G c #D9C7BD",
/* pixels */
"9vvvvvvvvvvmzmvvvvvvvVvvvvkf#0CNMNNNVVVVSSASNMMBNBMBMBBzzBAz0#%aZmvvvvmMvvvvzkvvvvmMMMNMmmmmkkmzvmao",
"6bbvvvvmvvvmmzmkhkvvbmvvvvzuo7CMVAAADGFDAMmZAMBMMBBMBMMjzBVk8O%tNNvvvmvvvvvvvvvvvvhvvvvvNmzkjzzmvmyo",
"1jskmvvvmmMNmvmjhkxbvvvvzmv8.6CMVVNNVVAVMMNMAVMBBMMBNBvgBBBz0O$eMNzbvkkvvvvmvvvvvvkvvvvvNCNMmmmmvm7o",
":rjmMmvMmmkmvzmvkzblkMmmmvf< 6VNNMNNNMmzhhvNVCMMMBMBBBmvBMBvr%O8zNzmzkvvvvvvvvvvvvvvvvvvzmMNNNNmmz,o",
"*uzvmMmmmvjmmvkzkhgaigggda8#X2VNVNBMNMhhkkhmNANMBBMBMBNMBBBbt=X2fjlzvbbbvvvvzvvvvvvvvvvvvbvkvbbbzy#+",
"@3uhhhhhgdaayw861:=%$##$&&@@o<VNABMMVmhkkkjzNNAMMMBMNNNNBbgsa;X;sfmbbbzzzkzkkmmmmmmvvvzkkkksahfdr=+@",
"O+*;:;;=*&&#@+X XO%*=;;;%oo+o;mMVmbbmmhhkkkzNMZZVBNBMNNNBmmza-OO4sgkfiq7560ww90w987532<<,,:;==**+o++",
"##+o  oo++o+++&3rupdgkvhfw1$o&hmVmzvvvzkzzzmmmMNZVMBBBNBBBBmi=OOo#&*%%@oXX.  .XoXXXX....  ooO+@#$%#$",
"aiurq5:#o++@o<ffgxMCBBBbMvfe&#ammMMMmmmmvvvvvvvzvvvmmmmmbbmka=OOo3idgiklgaau2$o+#++#*-,<26780rr0yyaa",
"VVNMVVMs5#++orffkBBMMMMMMBvf5XrmvmMVmzvvvvvvvvvmvvvvvvmvvzmkt=Oo,NACZMNCCCCAza<o+=whzmvmMmMMmvbhMNNV",
"MMNBMMNmfq@++9kVMMMMBNBCVMBb5 6mzmvzzmmzvmvvvvvzvvvvvvvvbvbki*X,lZMNMNMMMMMMNka=X8kSNNNNVVVVVVVMNNMN",
"NNMVMNMMms-o#8zVBBBBBMCBkbNm1 <kmzmmvmzmvvvvvzhhvvvBmvvvvvvki%#ilMNNMNNNNNNNNNj<+8MCNNNNMNMNNMMNNNNN",
"NNNNNVANNm:o#rNmkkVVBMCMhkBk,.,fmkvvvvvvvvvvhhjzmvkAMzmvvvmka%=fMNNvkNNNNNMmNNz,+wNNNNNNNNNNNNNNNMNN",
"NNNNNMVANM,X#yVjghBCMMBCmMBh;.1fjkvvmvvvvvvvhhjzvvMZmmmvvvmka%-jNNNNMNNNNNzzCVj*$rkNNNNNNNNNMNNNNNNN",
"BNMNNNMVVm2.%aVNnvCVMBMBVBna&X6fkmvmzmvvvvvvmjkvvMSmzkhkkmvks==hVMNNVVNNVNMNVNf#=fNNNNNzjmNNNNNNNMNN",
"mMNNNNNVVm5.&sNmMMMCCMBBBBbi%o9kmmjjjjzmvvvvvvvmVZvvmzkzzvmks;$fMNVVVVMNmMNNCNa+<vNNNNNgkNNNNNNMVCNN",
"hlNNNNMCCb4.=fvvvvvmVmmMMmMu#@rkvzfkkjzvvmBZZVVVVvvvvmvvmvmvd<@smMmmMMMkjmMmmMa+6mNMNNNMMNNMMMNVACmj",
"mNNNMBMVBv6.;flvvlvvzvvvmkmy@#ukbvgjjjvMCBBmmmmvzvvvvvvvvvhay4+pmmvvvmmkzmvvvMs@wMNMMNNNNNNCCVVBMMmv",
"BBBBNNBMVb6.:hvvjhzvvmmMmvmu@#ekvvvklvmVvvvvvvvbvvvvvvvvvvkfy6oymvkkmvvvmmvzvmf$yVMmmmmmMNNCVBNNBBBB",
"mmbbbbbbmv7.:gvvhjzMMNNmvvma#o5dvvvbvmZvvvvvvvvvvvvvvvvvvvmzi6ormmkkvvmmvzhkvmf&aNmzvvzmvmmMMMMMMMMM",
"vvvvvvvvvv8.-svvvMVMmzjjzvmy@o$qgmkzvvvvvvvvvvvvvvvvvvvvvvjsy>orvvvvvvbvMmkvmma$fmzmmmkmvvvvzmvvzmmk",
"vvvbbvvvvv0o*avbvmmmvvmmvvkqo@o;rsuzmvmmbvbvvvvvvvvkkmvmvgar<++0vvvvvbvvzmNmkg<&hmkmjgkmvvvmmvvvmzmm",
"vvbbvvvvvv9O@0skmkzzmzjmbvh2o@@o;59rpssffggggggfgghffgdu7<-#o@o<vvmvvvvkfay7,*X*fzmkgvmzmvvvvvvmzmmv",
"vbbvvbvvvb0OO=0uaauauyyasae&@@+OXX++@@@@$%*=;:>1<111<;%+oXX+@@+@1000731:=$+XX++$fmmmkmvmzvvvvvvvvvzm",
"mmzhkmvvvk7OO.@*--=%#@+@@#oXoo@%-:><<1<>=$.ooX .O$%%%@$$$$$@@o@@.o$**&#ooXo#%+++amvmmzmvvvvvvvvvvzmm",
"bhfjvvvzhd6.>rqwrrrw96532,;:17rskkkBMvljte;OOO1dzvBNmvgfkkzhp3+@#7kxkfitwweay-+owmzvmmvvvmmvvvvvvmmm",
"vhhzmvvvvm6.rjzVVVVNNjjmjgfhkvMBBvBBBBBvlzr$O$rmCBBBBCMBVVVVBa=X1kCBVVMBmMVVmw#X<mmmzmmmbkjjjmvvvmzm",
"vvzvvvvvmk1ormmMVCNNNmmVNMMMMVkkBCBBBBVCVBf1 ;zzMBVmNNNNMvmMMk4X0BBMMMBMBNvmVk;o%gmzmvvvmkfjkmvvmmmz",
"vvvvvvvvzf-%kVNNkmNVNNMNNNNNNMjkBBVVBBMBZVj4X;BBNBZZVCBNNjkMBBeX6MBBMNMBMjhkNM6oo7kvzvvvvvvkvvvvzvmv",
"vvvvvvvvky#<mMMkhkMNCNNNNNNNNNNMBBBBBvkBBZb9o-bBNmMBBNAZNNmBMViX4mBMBNNNmkkmNNu+o%asgmvmvvvbvvvvzmmk",
"jvzvvvvvj2oevvvjkmkmMNMMMMMMNMMVBBBmvvlbbmmrO=zVvgkBBNVGAVCMMVaX2VBMmBMBBBNBNNa$++:wgjkzvvbbbbvbmzkg",
"auaafhhjr@#uvvvvmvmvmzmzvMvjmmMmvzvBbvvvvvvr$$kBBmmBMNVCBBZCMVpo5VBvgmBNNMBANmf;o++#>0asfghhjkkhdaaa",
"**===:12&X*ydmmmmbbbvvvvvmVMBBmkkvvvvvbvzzkr$@gVBBBMMBSBMMMVBVtO7VNmgMNNNNCNNBm,o@Oo O;289098521,:;=",
"OOo.@o. X+@28tasfghkklbbmmmMmkjfpggggjkvvhg0O@fVMBMBVZVBBBBVVBio0VNmzNMNVVNMNNm2o+:6<&+++@#+OOoX  Oo",
"@O$8ady92;%+X XX+$*;160rtyyt9522113457990e7*o$abbmBVVMmMMMmBVBao0VNNNNNZVNNNVVm6.=jmmgayttttuut04;O@",
"++umvVVVBmkfuw62:-&$#@@@##OoXXoo      .  oXoO&ikzVBvzvvvvkhvvvaorMNNNBZNMNNmNCMq.8VNVMVVVBBBMnBMBz2O",
"o,mVMMMMNNVVVVVVmvvvzkkhfdsa5$O$46641>><246;o;jmvMvvvmvvzkzvvvaOwMNNMAVMNBzkBCmqotBMMMMBBBkkbBMCVli;",
"o6MMNBVNNNNVCBBBBBBBVBVVVVVjt;XegvMvvbMzhbbtO:zvvvvvvvvmvvmvvmsO7NNMNAMNNNMMVCMe#sBbBVVBBBMMBMVCMMl,",
"orMMNmkMNNNBBCCVVMMMMBMMMMmmh*&gkMVBBBVbbVMa=-zbvvvvvvvvvvvmvvh$2NNMVVMNNNNMZBVt$hmbmmmBBBBBMBMMbBv1",
"orCNNkjvNNNNMmmNVCVBBBBVVBMVj$2vVNMBVMMVBMMz;%jmvvjjvvvvvvmkgvz=:MNNNMNNNNNMCVNt%jbmBmbkkbnmMmvklvv5",
" 0VmmmvmmMMMkhzNMBBVBMMMMmvmfO9MBNNNVzzCVCZv:otmvvzzvbbvmmvkjvz%=mNNNNNNMBBMBVN0$hbzvmMbzvvvbvbbvvv6",
"o0Mvvvmvzvmggkkmvvvvvvzzzvvm0oeBNBBmVkjBBBSm, ,kmzmmmmbbmzmmmk8o*kNmmmmmmmNMMMv7+abkzvvmvmMMMMmmbbv6",
"O0vvmzNMzmmjkkmmbbvvvjgjkvbv:#tBBBjzVBmMBmCB:oO;6eisgjhhjakde,@o%jmzvvvvvvhkvmk5o8kmbfrradffddiusja=",
"O7zmvvmVNmmMmMMMMMmMMmmMMbba#$gVMmjmVBBBBBBb;oOX  .XO$&=--&#oo#o&jMvvvvvmkgzvvh4o$ra6%O+@@@#@#@@$*$O",
"o:akzkkmmmvvvkjfssureqert01$o*gVMBBBSBBBbzZx;o$&-;:<1>;=$##$#@Oo-hMvvvvvvhjvvvf3oo@O#,122235342<:$@o",
"$o@*:;-:::<2,*$#+o@#$#+X.XoOo$iBBBVCBBBkgbCj*oekzmbmBMMlfjjkjy=X;fkmvvvvvvvvvkg4o@o;dMMMVkjmvbbMksr1",
"a8<;;-=@.oXoX.@=,270eee6>$o@+@ekBVBMBBMvnBnj=OsCBBBBBBBBmVVVVVt#=hvvvvNvvvvvvvv9OO#aMNMNVMmVBVBMMBBv",
"VMMMkzmd;o#@#3ydgggjjjjjs0-o@o2fvmBBBMBBBBBz*OaVMMBMMMBBBBBMvma&%gvvvvBmvmvvvvvi#o,kCMNVVVMMMMhkBBBV",
"MNNVBBNMroo*uffMMBVBBVBVkkg:oo;avvmmNNNNMmmj=ouVMBnBBVVVBBbjhBh&%gmjgkMNmmvmvvvg;X5MBBMBBVCMBBMMBBnB",
"ZVVVBBCCuo+uzNgbBMMBBMBMmVve#o$izvvvmmmmMvmj=oqMBkhBCVBMMBbjvVl*#fmkkmmZkmmzvvvk3 9VBMBkkMVCMMBBMBBV",
"MMNNVBBCio*sNBNvBBBMMBMMBBv7O+$rvvvzvvmNmkvk;.tVBvbCBMBMBBVBnBv-@amvmvkZNmzmvvvzro8kmVvfkMMVCBMMZZBn",
"jkzMMMMVio%dNNNNBMSVMBBBmBv1XO$rzmkjmvmmkjvk: eCMCCVBMBBMBBVVCb1oumvvvmmCNzzvvmva#5xBMmmMBBMBBBMVVbf",
"kzbMBBMvio=fNNNnkBBSNNBzhbv-oo$tvvhvVmmzhkkm< eVbbbMMMMBBBMMnbv4oymvvvbvvVvvvvvvi#7mvvmmnnmMMMVMBBBn",
"mmmbmmmmio:gVNNkfmMZBNjgjbk*Oo*ivvvvNVNmkkvm4 emvvvvmMmvkkkvvvv0oymvvmkkmNvvvvvvu#5vvvvvvvvbvmbbbbbb",
"vvvvvvvbuo,kBMNkgmNVVNMklBh$oo;avvzmVkvmNzvm6 6mvvbvvmVvlkzvvvn0XymkmvfhzVvvvzzv0O5zmvMmmmmmmmBmvvvv",
"vbvbbvvvr.3hVNNNkkNZVMBNBBk=+o>hmMMNMzmvmMmk4 <zvvvvbvBmvbvbbvb6.qfkmvkkvVmvmvmz2 3kvbNvbbbkkbmbvvvv",
"bvzlgzvvq.3fNNNNNMNANNNNNNz1oo<hmNMvvvvvvmmf,X=kvvvmkmmVMvvkzmk2X3kmvvbvvmVvvvbj; <gvbmvvbhgkvvvvvvv",
"zvvllzvv6.,nVNNNVNZVMNNNNNv7+o<jvvvlvjlvvmvs*X$gmvvkkmMMmBmkzmk; 2kbvvvvvvvvvzbg&o&ikmvvvvvlvbvbvvvv",
"bbmmvbnl;.%hZNVCVVNNNNNNNNvr#o*izmlkmvvvzkj6O@@akmkkmNMvvvVVkva#o=sMmmmmzvvmMjbf$OO8hvmvvvvvvvbvkvxm",
"ddffasp<O@O0NNNNNMVvkvNNNNzy$+o*3790975352;@@@@2azmmNmvmmbvmje=o@+;7rryuuurqr991+@o=ihkkvkjgatrutaas",
"&&&&%#o.+#.3vVNbvmzgjjmNNNmy$+#X.oo.    XXX@o+X+&>2324680e081%o@@+oo ooooo    ..OOOO;ruye71=#ooo#$$$",
"9999761>%oX>hnvvvvggkkzvmmmu$+o;yffar71;;,2242>*+      XX@$%@X@@+@O@*:,4570q84,;*#@+oo+OOXo#%;><2467",
"VNNNNvkha3o;lzvvvmzzvvmvvvvi%.3mZVVZAAVNmvvfkmmkgaw88889eyaar=o@@o*70fkvVAVAZBbfur0000q8rishkvvMMBBV",
"bfzNMvNNha&&lbvvvvvmvvvvvzma$%mZMNMMMMNNBBBmBVBBCZZmVVMNBMBmt9%@O=rhkvVNNNMMMNVVbvvvbMNbbCVVBVVMBBBM",
"fkbNNNZZMd-*hvvvvzmzzmvvvvma#:NNNNNNNNZNNNNNNMNMNmNNNNNNNNNmks4Oo6dMZMNNMvlNNNMBCVBBNMBBmlzzMVVMBBzf",
"lbNNNCVVNj**dvvvmvmmmvvvvvmd#:NNNNmjlmNCNNNNNNNNNNNNNNNNMNNNVma*o8gZMNNMkhlBMMBFCCZADABMMljxMNCCmBmz",
"NNNNCNNNNd&*smvvmmmmmmmvvvmf+:NNNNmgbNNCNNNmNNNNNNNmzkmNNZVNNVl4o9vVNNNbgkMNBAFVMMBBCCVMBBBBNNVAVBBB",
"CVZVNNNNms&*szvvzmzmvvmmmzma+*mNMNmmNNNZVVNVNNNNNNzgjjlNVNMmmml9o9MVMNNNbMVCSZBMBBMBMNMNNNNNNNNBAAZZ",
"mmbbbbbnls$&azvvmvvkjvmvmvma#*ajmzvmmmmmmNNmmmvvvvvkklmmmmvvvkhqo5vZMMbbbbMMMnMMnMmMMbmmMmMMMMMMmmMm",
"Mzvvvvvvms#&smvvmvmjjkzmmvma#&amvvvvvzvvvzzvvvvvvvvmmMNNzvvvvvz9.3gmbvvbvvvvvvvvvvxjhjvvvmzmvvvvvvzm",
"Nzvvvvvvva@-jmmvzmmjhkmvvkka$$akvvvvmvllvmNNNvvvvmNmmmmzzmzmvmz5 ,fjlvvvvvbvvvvvnkghkvvbvzMVVNVMmmmV",
"fjbvvbzblro<kmzvmzzmjkvvmmje&oqflmvvmmgkvNNmvvvvvvmvvvzmmzmvzmk3.>dfzvvvvvvvvvvvvvvvvvvvmNMmmbmVVZZv",
"jzzmvvvbk9X5kjhvvvzvmvvmmkgr%o&yglbzMNmmmmzvzmmbvvvvzmmzmmvvvzd<.>ukbbbvvbvvvbvlmmmmmkvvzNvvvkmzvvvk",
"mvmglmzld-X,dsvmmmkzvzkfayw<+++%0flglmmbvmzzzlfaywwyaafffzzvzju*X*rufhlvvzlkkldfkmkmmmmmmmmmmmjmvbbv",
"vmvguar7-o@@-7usaaat05,&##@o@@@++:9rurwq97763:*#+oo@#*=;<<254<&O@+&>>>,134444444688eyadhjjkkzkgkzzzv",
"<,-=&#@oo@@O@@O@#%#OX  XXoooooXoX.... X. oXoXX##$$#+oXX       Xoo+@####@+oooXXXXXo++##=:<56777765421",
".Xo#%#+OO@O*0da91:;;;,,,<<<12<22333<<333:#@#@5dkaasuw975<<:::>150wqiiiiiur0843<:&++++..X++@@++ooX...",
"0wuaddi6&oo,sMAVmkjhhjjhhjjjkmjmbbnnNmmzf6#o-fNCNzVVCVNNkkvlzzmMZklNMnnMMVNvlgpee2++#,8yqaaaaauaire0",
"MmMNNVvi0&X,mNMNVVVMNVNVBVBBVNmklMNNNNZAku,X4zNMMNNNNNNVmNZVVVNNNbNNNBAANzbNBMu0r9+@eNBCgMVVVCCZBMVb",
"NNNNNMzMd1X:VNNNMNMMNMMMMMNMMMjvmNNNNNCNmk5o9NNNNNNNNNNMNMkjzNNNMNNMBCNNbdjzBljvs7o-mVMMNNNNMMMmgjMm",
"NNNNNNNNv0@-NNMMMMVMMVVVVVNMVAmVNNNNNNNZAm6+rNNNmvNVNNNNNmkghMNBNNNZAMNNNMMMNNVNj6 3NNNNmmNNMNVNmBBV",
"NNvlbCVNNp%%NNlvVMNNAVVVVVVNVVNMNNNmNNNMZN0@umNljjmZNMMMNNNmNCCBVVVAZVNMNNNNNNMMj3 tZmNkgjNNVNNVVBBM",
"lhjlbNVNNj=$znvbvvmmMmmMMMMMMNNNNNljzmmmVmr@ukvkjkzNmvvvbvnNNnMMMMMmNVVVMMmMmmvjf2 sNvvgjkmNNmNNMBMM",
"jzvbMNbbMz>$lvvvvvvvvzmkjvmmMMMmmmkjlvmNmvuO9kvvlvMmvvvvvvnbzvvvvmkgvvmNNmmmmMMkj3#jvvmvzmmvmvmmbvvz",
"bbzNCvvvvz<%lvvvvvvvvvvkkzvzvvvvzvmzvbmbvvuo,gzbmNmzvvvvvvvvvvvvvzfkjvvvNVMMMMmmk5*mmzmmNVmvvzvmvvvb",
"vvbzlvvbzf-$fzvvvmmmmvvmvmvvvvvvbvzmvzbbvl0O#akzMMmmmbvvvvvvvvvvvkkzzvmvzmvvzvmvj5:jkvNNvzvmkgkvvvvv",
"vblfzvvzd4++1ruiasassafhjjkjjkjlzmbblfzlkf,oo-akmmmmvdbbmmbbbvbxvvvvvvvmvvvvmmmga,$jMmvMNNmmmmmzvvvv",
"vvlljpu7,@@@oXoO@@@##&*=::,,<114555655664-+@@o&4qyuaruddfffgjlljvvmvvvmjzvvzkjat7$o<ajkvmMNNNNhzmbbb",
"<>-*%$@+XXoo@##%%&*&&*#O XooXoX  XO+#+@+o.ooXXX.X+%*=;;=%-;:17uifggfddsuaaaur5,=@+@o#=:267wrry0we962",
"XX .@+++%:4quiuudasasaiq4#+@@@#<9uuadaiurr087<:;*&$#@@##%%@ooO%-,>-*$%*;;*%@X.XX++ooXX. .ooo@##+oooo",
"@#3uuuuwplvMNBbbNNNNNnmba8#o@X7jlnNVBNVBMkjxlkgaauyrrrryuu7#O@Ooo.o$;:,<22<,;=%$$&--;;;;*%#@ooo+@@@@",
"+9lmzmNMNNBNNNNBnMNNNNNmzj6O+%amVVBNNNNNZNvAAZCCMmvzkkbCngk4o@@O#<uahNVZCCCBmzjfdddzmMMMvfuw6<=@o@@@",
">fNNNMNNNNNNNNNlgzNNNNNNNna&X-lCMMNNNMNNNNNVMBBBBCCCVVVVnNNp;OO%wmDZMZVNBNNBBBVBVmgCCVVCAACMzhi8-o@@",
"7MNNNNNNNNNNNlgglNNNNNNNNNk, <mNNNNNNNNNNNAVMBMNMMMMMMMMNNNk9#X<vDNNMMNMNMNMNNMMNMmNMMMMMMMNVCVhi;o@",
"uNNNNNVNNNNNNnlvNNNNNNNNNNm9 5NVMNNNNNNNNVCMBMBMNNMNCAVMNNBbu%.3ZNMNNNNNNNNNNMMNNNMNNNMVNMMCVMMmBr@@",
"iNNNNMNCNNNNNBBCNNNNNNZNNNmuo5ZNNNNNNNNNMZANBMNBBBBNMCCCBNNnp>.4SMNNNMNNNBNNNBCNNNNMNNMvkzMNSNNNBh%o",
"umNNzfbCDNNNCCCNNNNNNNlflNNa$5CNNNNlbNNNNVDMNNMzljlMNNMNDBNnp> qSNNNNNNNmkzBBCBBMBBMBBzzmMBMVSCMBv:o",
"umNNllvNNNNNNNNNNNMMCbdljvbd*3vNNNldhNNNNCNNNNMhhjhbNNNMMCNbi-XuANMNNNNzkkvVCMMMBMMBBMMBBBBBMMBBBM5X",
"uMmmMvvbNNmbbMmbvvvvNMvlzvvf*6mmNzfznNNNZDMNNNNNNNMNNNNNMCCvu%#pANNNNNNMMBCVBMBBMBBMMMBBBMMBBBBBBBro",
"qvvvvvvzvmMvvvvvvvvvmNvbmvbf*7DMNbnNNNNDZVVNNNNNNNNNNNNNMBDzu%%pCmmmmmmMVVNmmmkNBBMBBBBMMBBMMBMmvvro"
};
