/* XPM */
static char *_707272e7519490e806a8a5bcba60a91HVjZ7GldeGWTUR96[] = {
/* columns rows colors chars-per-pixel */
"50 50 218 2 ",
"   c #3E1400",
".  c #490500",
"X  c #450A00",
"o  c #4B0D00",
"O  c #450200",
"+  c #580700",
"@  c #540C00",
"#  c #5B0C02",
"$  c #451301",
"%  c #4C1403",
"&  c #451803",
"*  c #4B1905",
"=  c #4D130A",
"-  c #471808",
";  c #4E1909",
":  c #541403",
">  c #5B1401",
",  c #551A04",
"<  c #5C1B05",
"1  c #5A1709",
"2  c #541C0A",
"3  c #5C1C0A",
"4  c #561408",
"5  c #4E1E11",
"6  c #541F11",
"7  c #630E00",
"8  c #6C0F00",
"9  c #740E00",
"0  c #631501",
"q  c #6C1500",
"w  c #631C03",
"e  c #6C1C02",
"r  c #641C0B",
"t  c #6C1D0C",
"y  c #6A170C",
"u  c #741400",
"i  c #7B1501",
"p  c #731C01",
"a  c #7C1C02",
"s  c #731D0A",
"d  c #7F1F0C",
"f  c #651E14",
"g  c #6C1E11",
"h  c #7F1F10",
"j  c #4D230F",
"k  c #5B2305",
"l  c #55230B",
"z  c #5D220C",
"x  c #5D280E",
"c  c #4C2313",
"v  c #542212",
"b  c #5C2413",
"n  c #5E2B13",
"m  c #5C251C",
"M  c #5E2B1A",
"N  c #642105",
"B  c #6C2204",
"V  c #672806",
"C  c #6B2A03",
"Z  c #64220B",
"A  c #6C240B",
"S  c #652A0D",
"D  c #6C2A0B",
"F  c #732304",
"G  c #7A2304",
"H  c #742B03",
"J  c #792C02",
"K  c #74240B",
"L  c #7B240C",
"P  c #732A0D",
"I  c #7B2A0C",
"U  c #6D310D",
"Y  c #76330C",
"T  c #7D330D",
"R  c #642412",
"E  c #6B2412",
"W  c #642B13",
"Q  c #6B2B15",
"!  c #652518",
"~  c #6B2419",
"^  c #642B1A",
"/  c #6B2C1B",
"(  c #732313",
")  c #7B2613",
"_  c #742C13",
"`  c #7C2C12",
"'  c #702518",
"]  c #732C19",
"[  c #7B2C1A",
"{  c #643114",
"}  c #6D3313",
"|  c #66311A",
" . c #6C321C",
".. c #753413",
"X. c #7B3315",
"o. c #7D3A14",
"O. c #72331C",
"+. c #7D321B",
"@. c #77391E",
"#. c #652B23",
"$. c #682C20",
"%. c #7E2E20",
"&. c #742D23",
"*. c #6A3322",
"=. c #643A22",
"-. c #673F28",
";. c #7D3222",
":. c #7C3820",
">. c #78392A",
",. c #75422F",
"<. c #821500",
"1. c #831C02",
"2. c #8A1D01",
"3. c #821D0A",
"4. c #8F1E09",
"5. c #921C01",
"6. c #981F00",
"7. c #861F12",
"8. c #822303",
"9. c #8A2404",
"0. c #842905",
"q. c #8B2904",
"w. c #83240B",
"e. c #8B260C",
"r. c #842B0D",
"t. c #8B2B0C",
"y. c #922303",
"u. c #9A2602",
"i. c #922C04",
"p. c #9C2B05",
"a. c #93240B",
"s. c #9A260B",
"d. c #932B0B",
"f. c #9C2C0C",
"g. c #85310C",
"h. c #8B320D",
"j. c #843D0E",
"k. c #94330D",
"l. c #9A330C",
"z. c #832513",
"x. c #892511",
"c. c #842C12",
"v. c #8B2C12",
"b. c #832C1A",
"n. c #8C2C1D",
"m. c #9C2613",
"M. c #922D14",
"N. c #9A2D14",
"B. c #9C2E19",
"V. c #833214",
"C. c #8B3415",
"Z. c #823B13",
"A. c #8A3A14",
"S. c #84341B",
"D. c #8C341C",
"F. c #853B1B",
"G. c #8C3A1C",
"H. c #943214",
"J. c #9C3414",
"K. c #923817",
"L. c #9F3814",
"P. c #95351B",
"I. c #9A341B",
"U. c #933B1B",
"Y. c #9B3A1C",
"T. c #A62707",
"R. c #A12B05",
"E. c #A52F0B",
"W. c #A4310D",
"Q. c #A02E12",
"!. c #A23413",
"~. c #AA3613",
"^. c #A43916",
"/. c #A4351A",
"(. c #A33C1E",
"). c #AB3B19",
"_. c #A93816",
"`. c #B43A1A",
"'. c #B93818",
"]. c #B23617",
"[. c #823521",
"{. c #8F3620",
"}. c #8E3A21",
"|. c #833A20",
" X c #943724",
".X c #9E3620",
"XX c #923C22",
"oX c #9D3B23",
"OX c #9D3A2A",
"+X c #9B3628",
"@X c #A93727",
"#X c #AC3F22",
"$X c #A43924",
"%X c #B43E2F",
"&X c #8E4016",
"*X c #85421B",
"=X c #8C421B",
"-X c #93431D",
";X c #934A1C",
":X c #A3421E",
">X c #B1421F",
",X c #8B4123",
"<X c #954522",
"1X c #9C4526",
"2X c #904E27",
"3X c #95432A",
"4X c #934B2E",
"5X c #9D462D",
"6X c #9A522F",
"7X c #A44425",
"8X c #AB4322",
"9X c #A14820",
"0X c #AB422A",
"qX c #A64A2F",
"wX c #BC4C2D",
"eX c #B74523",
"rX c #A2512D",
"tX c #B84F31",
/* pixels */
"b.) K K h z.) ) w.w.v.v.v.v.C.H.2.~.'.T.p.~.`.].`.5.).E.wXu.!.).y.s.2./.d.J.2.t.C.r.F e I g.I e I I ",
"[.%.' ' [ b.+.+.S.S.S.S.3X3X3X3X8.J.!.d.H.7XtXwX8Xd.(.(.0XM.H.I.Y.I.t.M.t.v.G G S.X.P B ` S.X.B +.+.",
"= o . O X X o o 3 z 3 3 < < , , Z A N < w D ..P X.F P ` X.` B P _ P _ w A w Z , Z z < < x W x : x b ",
"*.$.~ ! M ^ / ~ ~ R R R E E E A A N , , B A N : B e 0 F K X.w B > 0 [ 0 ' r Q < : : , , 2 3 , o % - ",
"Q Q _ ( S } X.S.c.w.w.r.v.v.v.v.oXU.C.c.P.oXU.8.J.^.J.L.l.8Xl.t.3.7.+Xz.OXn. Xb.` _ A A _ _ _ ] b b ",
"k k w w k k V F p i a 1.8.w.e.e.8.8.a a i 1.t.t.i.i.p.i.i.l.q.9.e.w.w.i v.w.w.p t w 0 > 0 w w w 3 2 ",
"$ $   & * * & % @ + + + + + + + 0 w e e 0 w F V.p 0 F w F 0 w 0 B w > w w w > : 3 2 = % = = = % % % ",
"*.=.=.-.,.>.=.| ] [ [ +.[.[.[.F.Y T A.&X=XZ.&XrX<XT 6XF.6XX.*XF.o.Z.Y 2Xo.*XC ..*.#.#.m m m m m *. .",
"/ / |  .O.O. .O.S.D.D.D.D.{. XG.H Z.-XA.V.K.7XqX1XK.K.1XK.V.C.1XK.G.A.A.<XA.I K ' / / / / / ! R / Q ",
"> > > > w w > 0 u u u u u u u u e p G a a a i <.<.<.<.1.1.i u u a 1.1.8.8.i u 8 0 > > > > @ o . < 3 ",
"F F F F G G F G 0.0.0.0.8.8.8.8.k.i.i.p.E.p.6.5.R.E.E.R.R.R.u.5.u.p.W.~.R.p.p.i.e w w N B N w > , 2 ",
"F F F F I I G G I r.r.g.g.g.h.h.9Xk.i.l.!.!.W.E.~.eXeX~.f.).>X_.f.!.>XeX^.).).:Xg.........P D V 3 6 ",
": : : : Q Z Z Z Z N N N N > w ..N > w I F L r.c.w.p p I I p p I F K I I F F e e Z R 3 3 3 < > % 2 2 ",
"3 3 3 3 /  ./ E A A A A w w A _ N N D ` e p L I c.L L c.c.K K c.K F F F K K B e ] ~ R R R R 3 3 R R ",
"X.X.X.X.|.4X4XV.U.P.P.H.H.Y.7XY.t.K.Y.Y.d.J./.).#X!.!.8X(.J.J.(.(.J.J.d.J.J.H.C.S.+.X._ _ _ K D X.+.",
"e e e e B F.F.e 8.2.2.2.y./.#XJ.i q.d.9.y.d.f.!.f.y.y.f.f.y.y.f.^.l.y.2.y.9.1.a ` _ D D D B w w _ _ ",
"N N N N w > > H r.a <.a.s.5.<.9 0.G p p u u u u 9.8.a i a 9.9.a p 0.d.<.2.2.8.I w < > w N N Z Z % % ",
"E E E E Q Q ] [.5XoX$X0X$X.XH.v.}.G.S.S.}.S.` L U.D.C.C.D.U.U.D.A.U.oXI.I.P.XX,X....O.@.Q Q Q W l l ",
"f f f f ~ &.>.;.n.D.D.S.[.:.+.+.[ [ +.+.;.O.O.] _ [ S.S.S.+.+.S.+.` b.D.n.n.[.:. . . . .| ^ ^ ^ n n ",
"# # # # # g E y q L K w w w e t # # 0 r @ > r A + 7 q e e 7 7 e w # 7 a 8 q 0 < , , , , 2 2 , < , < ",
"L L L L s b.b.p 8.H.C.G t.M.N.J.a F F G a w.t.M.e.t.H.Y.t.t.8.8.0.a 1.N.B.M.0.F F D D D D D A A B F ",
"K K K K ` b.c.I G r.r.8.H.H.N.J.r.r.r.r.w.w.e.t.t.t.d.H.H.H.t.t.8.8.a.Q./.N.t.G F H H H D B B B B V ",
"3 3 < 3 r < < r w w 0 e e 0 > @ e e e e e e e e p p p q G p p q 0 p a 1.x.w.p w : : : : : o o o $   ",
"/ / / /  .R R  .+.P P V.F.X.D N ) z.z.) }.S.X._ F.S.` L c.I K F I XXoXI.0XOXD.X.V S W W W W ^ M j c ",
"O.O.O.O.O.Q Q _ S.) c.XXU.D.V.c.I.B.M.x.c.c.D.G.V.G.D.L c.}.}.c.qXoX$X%X%X@XP.c.I U U Q Q R 3 2 v c ",
"> > > > > > > > e p p I L G p a 1.<.<.a a a w.r.I r.G p u p p u v.w.4.m.m.a.8.G B C B B N r > : ; * ",
"e B B w e I I B w F F F B B F F F F G 8.9.9.a.f.(.H.h.k.0.8.8.0.r.G 1.t.t.q.0.J J J J H F B w > < 2 ",
"P I P B P ,X,XH H F.*Xo.Y X.F.*XT Z.G.U.Y.(.#X0X7XK.C.U.U.r.r.K.&Xg.h.Y.I.U.-X;Xj.j.Z.Z.X.X._ E Q ^ ",
"3 < < Z Q Q Q Q V ..o.X.P I I I X.X.` X.V.c.) L K K K K K K K K K ) z.3.x.c.V.Z.D U D D S R R ! 5 c ",
"3 < 3 R Z Z Z Z w B B B B B F F L L L ) ) ` K K K K K K K K K K e L 3.i 1.3.L I Y } } } Q Q ^ ^ c c ",
"P A D _ A A V B I F G r.r.r.V.v.I.I.I.Y.oXY.P.C.r.r.r.r.r.r.r.r.v.I./.m.m.N.K.G.T Y Y Y _ _ ' / b v ",
"0 > > w D D D F L q q G p p p p e.a.a.a.d.d.9.8.8.8.8.8.8.8.8.8.a e.e.<.<.<.8.G B B B B V A D Q 3 l ",
"w B w @ > P X.e q p p q 0 e F J q u 8.e.i a 8.w.q e p F F q e c.I p p 0.p p p e X.A A Q O.x k W k k ",
"Z Q Q Z Z O.@._ ` D.S.` V.V.F.G.I v.H.P.C.C.C.H.c.C.D.G.C.I r.G.V.c.c.S.I I P _ ;.' Z Z k l x { n W ",
"b b b ^ b ^  . .~ [ [ ( ` b.z.z.c.v.v.H.C.C.v.v.w.z.v.v.z.w.d L I ` ` ` L L P _ _ ' Z 3 % l b v 2 2 ",
"2 % : b 2 2 z R t ) ) s b.z.d a G G 1.a r.G a u a 3.w.x.x.x.w.a e K K e F F B A A ] ~ < 2 b l $ ; ; ",
"A w Z Z N Z D I M.N.N.M.v.r.8.a r.t.t.r.C.g.t.e.v.I.Y.M.e.H.H.r.p I ` F B ` ` A E ] ~ R x ^ n * ; = ",
"A A A w w w V K M.N.M.M.8.G G F F a a a G G G a t.t.t.r.r.t.v.r.e F F e e B B e w r < 3 3 l , $ $ = ",
": < < : < 3 R Z B e e e e e B F q u i a q p i a p p p p G p p F F e e p e e e A r > : z b 2 * * v v ",
"/ / ^ ^ R R /  .S V V A B K ` V.F L v.C.L ` D.D.D.c.V.G.V.L ) +.+.K K +.+.A A +.Z r Z R  .z 2 b 2 2 ",
"W W W x x W W S S S S V A _ _ e K K K K P P P L c.c.c.c.b.( E ' Z Z Z Z r < < r Z Z R ^ R b 2 2 - & ",
"z < < < < z < , < r w w w A A > D P P P B B B e p a K K t ( E 1 R R R Z Z z z z : < 3 z 2 2 ; % - * ",
"' E E E E E E ( K L L K P ` _ Z X.X.X.X._ _ _ P I I P ` E ' ~ r E E E E E E E E R R / R R ^ R 2 ; ; ",
"r r < r r w r w r t e e e D A w B B V V D D A A B p e A A w > r g g E E E E ( E 3 Z R , 2 z z 2 ; ; ",
"% , < % : , W  ., k N S w Z P _ A A A A _ _ _ P L p p ) s 0 t [ g 0 0 E E 0 0 E r 4 % 2 2 o o 2 2 2 ",
"k x W k x x W  .x S { } V A A P _ _ _ _ _ ` ` ` w.L L z.[ t g ;.' E E E E E E E ~ z 3 3 3 : : 2 v v ",
"< < < < < < < r Z A _ _ _ A A A A A A A A A A e e p s t t t r 3 3 3 3 , , 3 3 < 4 4 % % : 3 3 , * * ",
"' r r ' E Z t w w w e K ` _ A w _ _ _ _ K K A A p ) ` K t ;.O.> 3 / Q 3 3 Q Q 3 3 z 3 4 4 R R 2 2 j ",
"A t t Z Z A Z A w B K K ` K A Z D A Z w e e w w K t ) t t ( t ' t r r r r r r r 3 3 3 3 4 1 1 2 6 v ",
"A t t Z Z A A A N B K K ) K A Z D A Z r t e w r ( t ) t s ( t ( r r r r r r r r 3 1 4 4 4 4 4 : ; - "
};
