/* XPM */
static char *result[] = {
/* columns rows colors chars-per-pixel */
"25 25 58 1 ",
"  c black",
". c #010001",
"X c #160617",
"o c #360000",
"O c #230825",
"+ c #240A26",
"@ c #290A2C",
"# c #2A0A2D",
"$ c #2B0A2E",
"% c #2C0C2F",
"& c #39142F",
"* c #380D3C",
"= c #313131",
"- c #3F3F3F",
"; c #480000",
": c #570000",
"> c #640000",
", c #6B0000",
"< c #6C0000",
"1 c #6E0000",
"2 c #740000",
"3 c #3D0E41",
"4 c #3D1141",
"5 c #421246",
"6 c #431247",
"7 c #531459",
"8 c #58185E",
"9 c #73295E",
"0 c #5C1663",
"q c #782B62",
"w c gray34",
"e c #626262",
"r c #717171",
"t c gray50",
"y c #870000",
"u c #8F0000",
"i c #A10000",
"p c #A20000",
"a c #C90000",
"s c #D50000",
"d c #D70000",
"f c #7D1E86",
"g c #AC3D8E",
"h c #A728B3",
"j c #B230B3",
"k c #B732B5",
"l c #C63DB8",
"z c #D24BAD",
"x c #D647BA",
"c c #E652BD",
"v c gray58",
"b c gray69",
"n c gray",
"m c LightGray",
"M c #E1E1E1",
"N c gray94",
"B c #FEFEFE",
"V c None",
/* pixels */
"VVVVVVVVV         VVVVVVV",
"VVVVVVV   9999999  VVVVVV",
"VVVVVV  qccccccccz  VVVVV",
"VVVVV &ccccccccccx7 VVVVV",
"VVVV &ccccccccxlkh# VVVVV",
"VVVV gcxllljhhhhhf  ## VV",
"VVV  hhhf77777777  fhh#VV",
"VVV  7#   #77777# fhhhh V",
"VVVV   #fhhhhhhhhfO#hhh7V",
"VVVV  fh7      7hhh fhh7 ",
"VVVV ff %588885+ fh77hh7 ",
"VVV ff 588%%8888%#h73hh*V",
"VV 7h#%85 wt 5888 h7 hf V",
"VV hh %  nBBt%888 h7@f VV",
"VV h.rtnBBBn 4888 h7$ VVV",
"VV 7=NBBBBB %8886 h# VVVV",
"VVV eNB-bBBn 888X7f VVVVV",
"VVV     MBBB %%X#h#,1 VVV",
"V ,,o   vMMm 770h#:ddd,VV",
";ddddio      777 <dddddpV",
";ddddddddi,,,,,iddddddi;V",
"V  sa  dddddddddd,ss> VVV",
"VVVVV<ddddddddddd,VVV  VV",
"VVVVVV,yddddddd2uVVV,ddd;",
"VVVVVVVVV     VVVVVVV<,,;"
};
