/* XPM */
static char *result[] = {
/* columns rows colors chars-per-pixel */
"50 50 32 1 ",
"  c black",
". c #010000",
"X c #010001",
"o c #010101",
"O c #030103",
"+ c #040000",
"@ c #050106",
"# c #060107",
"$ c #130710",
"% c #220000",
"& c #240927",
"* c #380F3B",
"= c #380D3C",
"- c #6D0000",
"; c #451349",
": c #4C1252",
"> c #58185E",
", c gray37",
"< c #850000",
"1 c #BF0000",
"2 c #C80000",
"3 c #D70000",
"4 c #97367C",
"5 c #8C2196",
"6 c #A628B2",
"7 c #A728B3",
"8 c #D449B4",
"9 c #E652BD",
"0 c #C5C5C5",
"q c #FBFBFB",
"w c #FEFEFE",
"e c None",
/* pixels */
"eeeeeeeeeeeeeeeeeeeee            eeeeeeeeeeeeeeeee",
"eeeeeeeeeeeeeeeee                   eeeeeeeeeeeeee",
"eeeeeeeeeeeeeee                      eeeeeeeeeeeee",
"eeeeeeeeeeeeee      99999999999999    eeeeeeeeeeee",
"eeeeeeeeeeee     $999999999999999994   eeeeeeeeeee",
"eeeeeeeeeee     99999999999999999999   eeeeeeeeeee",
"eeeeeeeeee    99999999999999999999997  eeeeeeeeeee",
"eeeeeeeee    999999999999999999999977  eeeeeeeeeee",
"eeeeeeeee   9999999999999999999997777  eeeeeeeeeee",
"eeeeeeee   9999999999999999997777777   ee  eeeeeee",
"eeeeeeee   9999999999987777777777777         eeeee",
"eeeeeee   9999977777777777777777777      77   eeee",
"eeeeeee   777777777777777777777777     77777  eeee",
"eeeeeee   7777777                     7777777  eee",
"eeeeeee   777                       7777777777  ee",
"eeeeeee              777777777777    777777777  ee",
"eeeeeeee         777777777777777777    77777777 ee",
"eeeeeeee       7777777777777777777775   7777777  e",
"eeeeeeee     77777            77777777  7777777  e",
"eeeeeeeee   7777                777777   777777  e",
"eeeeeeee   777     >>>>>>>>>>     77777  777777  e",
"eeeeeee   777   >>>>>>>>>>>>>>>*   7777  777777  e",
"eeeeee   777   >>>>>>>>>>>>>>>>>>  7777  777777  e",
"eeeee   777   >>>>>>    >>>>>>>>>   777  :7777= ee",
"eeeee  7777  >>>>>        >>>>>>>>  777   7777  ee",
"eeee   777   >>>>   ,www   >>>>>>>  777   777  eee",
"eeee  7777  >>     wwwwww  >>>>>>>  777   77  eeee",
"eeee  7777        wwwwwww  >>>>>>>  777  67   eeee",
"eeee  77@      qwwwwwwww   >>>>>>>  777  7   eeeee",
"eeee  77  0wwwwwwwwwwww   ;>>>>>>>  777  #  eeeeee",
"eeee  7   0wwwwwwwwwww   >>>>>>>>>  777    eeeeeee",
"eeeee 7  0wwwwwwwwwwww   >>>>>>>>O  77    eeeeeeee",
"eeeee    0wwwww  wwwwww   >>>>>>>  777   eeeeeeeee",
"eeeee    00www  0wwwwwww  >>>>>>   77   eeeeeeeeee",
"eeeeee          0wwwwwww  >>>>>   777     eeeeeeee",
"eeeeeee         0wwwwwww         777  3333  eeeeee",
"eeee            00wwwww0       &777  <333333  eeee",
"ee  33333       o0000000  77777777   333333333 eee",
"e 333333333              X777777   .33333333333+ee",
" 333333333333                     33333333333333 e",
" 333333333333333333            3333333333333333 ee",
"e 3333333333333333333333333333333333333333333  eee",
"ee    3331    333333333333333333333333332    eeeee",
"eeeeeeeeeeee  33333333333333333333  eeeeeeeeeeeeee",
"eeeeeeeeeee 33333333333333333333333 eeeeeeeeeeeeee",
"eeeeeeeeeee333333333333333333333333 eeeeee     eee",
"eeeeeeeeeee 3333333333333333333333 eeeee 3333333 e",
"eeeeeeeeeeee   -33333333333333%  eeeeeee 33333333 ",
"eeeeeeeeeeeeeeeee            eeeeeeeeeeee  333333 ",
"eeeeeeeeeeeeeeeeeeeeeeeeeeeeeeeeeeeeeeeeeeee     e"
};
