/* XPM */
static char *ba85545609fe4f1fbeee1bdbdcb1c95e6qWcaqrysYhZkfd2[] = {
/* columns rows colors chars-per-pixel */
"50 50 209 2 ",
"   c #1E1304",
".  c #1C1B15",
"X  c #24190C",
"o  c #2A1C0B",
"O  c #251705",
"+  c #351200",
"@  c #3C1B00",
"#  c #241612",
"$  c #231B12",
"%  c #291C15",
"&  c #2A1D1D",
"*  c #23141C",
"=  c #280700",
"-  c #2B2000",
";  c #392400",
":  c #392907",
">  c #27241E",
",  c #232522",
"<  c #2D2D2C",
"1  c #2A2724",
"2  c #2E312E",
"3  c #2D2F31",
"4  c #2F3232",
"5  c #323434",
"6  c #3A3532",
"7  c #363936",
"8  c #393937",
"9  c #3B3C3A",
"0  c #393739",
"q  c #412200",
"w  c #403E3D",
"e  c #4E3F34",
"r  c #5E3638",
"t  c #52332F",
"y  c #623939",
"u  c #63373B",
"i  c #5E4D2A",
"p  c #63542E",
"a  c #6A413F",
"s  c #625430",
"d  c #3D3F41",
"f  c #423F40",
"g  c #3F4442",
"h  c #454443",
"j  c #494644",
"k  c #464946",
"l  c #4B4946",
"z  c #4A4748",
"x  c #4C4B4A",
"c  c #504D4A",
"v  c #544744",
"b  c #4E514E",
"n  c #53514F",
"m  c #4F5252",
"M  c #545353",
"N  c #744845",
"B  c #6D5C44",
"V  c #6B5C4B",
"C  c #77514B",
"Z  c #775151",
"A  c #7B5958",
"S  c #5F605D",
"D  c #72694F",
"F  c #74695A",
"G  c #726B58",
"H  c #686563",
"J  c #787473",
"K  c #84633E",
"L  c #8A6846",
"P  c #9A7A5E",
"I  c #8F5C66",
"U  c #8C7F6F",
"Y  c #916770",
"T  c #8C7F78",
"R  c #A4737A",
"E  c #8C8161",
"W  c #958B6A",
"Q  c #948867",
"!  c #83817C",
"~  c #968E7A",
"^  c #AE8C6C",
"/  c #A39675",
"(  c #B69570",
")  c #BDAB7F",
"_  c #C3A27F",
"`  c #888B8A",
"'  c #928C8B",
"]  c #8E908D",
"[  c #90918E",
"{  c #929494",
"}  c #999491",
"|  c #9D9E9B",
" . c #A19E9B",
".. c #A49A9B",
"X. c #B2908D",
"o. c #9CA39E",
"O. c #A3A29C",
"+. c #9D9FA0",
"@. c #9FA2A1",
"#. c #A5A9A6",
"$. c #ACACAC",
"%. c #A7A4A4",
"&. c #B1AFAE",
"*. c #ADB0AD",
"=. c #B0B0AE",
"-. c #BBB3AD",
";. c #AEB1B0",
":. c #B3B3B2",
">. c #B9B8B6",
",. c #BBBDBC",
"<. c #BBB3B2",
"1. c #C3AA88",
"2. c #CAB28B",
"3. c #CFAE9B",
"4. c #D5BA99",
"5. c #CBBE9B",
"6. c #CBBFAA",
"7. c #C5BCBA",
"8. c #E3B9BE",
"9. c #BFC1BE",
"0. c #CEC198",
"q. c #E7DA9D",
"w. c #CFCAAC",
"e. c #D9C9A8",
"r. c #C1C1BC",
"t. c #CEC5BF",
"y. c #DBCDB8",
"u. c #DDD3B2",
"i. c #E7CAA9",
"p. c #EDDCAA",
"a. c #E8D7A8",
"s. c #F3D9A9",
"d. c #ECCFB0",
"f. c #E3D4B5",
"g. c #EED6B7",
"h. c #EDD4BA",
"j. c #E7D9BA",
"k. c #F3D5B6",
"l. c #F6D9B3",
"z. c #F9DAB5",
"x. c #F4D5BA",
"c. c #F4DABA",
"v. c #F9D9BA",
"b. c #EFE1B8",
"n. c #F4E7B9",
"m. c #C3C4C3",
"M. c #C7C9C9",
"N. c #CACCCB",
"B. c #C9C6C5",
"V. c #CED1CE",
"C. c #DBD8C9",
"Z. c #CFD1D1",
"A. c #D2D3D2",
"S. c #DCDBDB",
"D. c #DCD8D0",
"F. c #D5C9CB",
"G. c #E5DAC0",
"H. c #E7DACA",
"J. c #F4DAC1",
"K. c #F8DEC6",
"L. c #F5D8C5",
"P. c #E9CFD2",
"I. c #E4DBD7",
"U. c #FBD7D6",
"Y. c #FDDADA",
"T. c #F6DAD9",
"R. c #EAC5C8",
"E. c #DEE1DE",
"W. c #EAE3C1",
"Q. c #E5E3C5",
"!. c #F0E1CD",
"~. c #FCE3CC",
"^. c #F4E8C6",
"/. c #EBE2DE",
"(. c #E7E4DC",
"). c #FFE2D3",
"_. c PapayaWhip",
"`. c #FFE2DB",
"'. c #F1EDDC",
"]. c #F8EBDB",
"[. c #F5E5D1",
"{. c #FDF3DB",
"}. c #F6F0CB",
"|. c #E2E3E2",
" X c #EBE5E2",
".X c #E7EAE9",
"XX c #EDEDEC",
"oX c #FFE2E1",
"OX c #F3EBE3",
"+X c #FBEEE2",
"@X c #F5EEEB",
"#X c #FBECEC",
"$X c #F1E5E1",
"%X c #F7F2E6",
"&X c #FEF4E3",
"*X c #FFFAE7",
"=X c #F5F2ED",
"-X c #FEF2EC",
";X c #FFFAED",
":X c #FFEDF1",
">X c #EFF1F2",
",X c #F5F4F3",
"<X c #FEF4F3",
"1X c #FEFBF5",
"2X c #FFF6FA",
"3X c #F7FBF9",
"4X c #FEFEFE",
"5X c #FEFEFD",
"6X c #F5F9F7",
/* pixels */
"4X4X4X4X4X4X4X4X4X4X4X4X4X4X5X5X2X..* & # X X X X X X X $ $ . .  .1X4X1X5X5X4X4X4X4X4X4X4X4X4X4X4X4X",
"4X4X4X4X4X4X4X4X4X4X4X4X4X4X5X5X4X%.& & # X X X X X X X X $ $ $ ! C. X=X5X5X4X4X4X4X4X4X4X4X4X4X4X4X",
"4X4X4X4X4X4X4X4X4X4X4X4X4X4X5X5X4X..# # % o o o o o o o o % % % > 1 r.5X5X5X5X5X4X4X4X4X4X4X4X4X4X4X",
"4X4X4X4X4X4X4X4X4X4X4X4X4X4X4X5X<.J % e V B B B B B B B B V V V H H D.,X1X1X5X5X4X4X4X4X4X4X4X4X4X4X",
"4X4X4X4X4X4X4X4X4X4X4X4X4X4X4X7.1 & O U !.f.f.f.c.J.J.J.K.J.K.j.OX1X4X1X5X4X5X5X4X4X4X4X4X4X4X4X4X4X",
"4X4X4X4X4X4X4X4X4X4X4X4X4X4X4X7.% $ o W W./ Q e.c.c.c.v.4.P 1.~.OX3X5X1X4X4X5X5X4X4X4X4X4X4X4X4X4X4X",
"4X4X4X4X4X4X4X4X4X4X4X4X4X5X2Xt.% o O W u.s : 1.c.c.v.v.^ + L h.OX3X5X1X4X4X5X5X4X4X4X4X4X4X4X4X4X4X",
"4X4X4X4X4X4X4X4X4X4X4X4X5X,X4XI.~ D : E f.s O 1.l.z.z.z.1.+ L c.].;X1X1X5X5X5X5X5X4X4X4X4X4X4X4X4X4X",
"4X4X4X4X4X4X4X4X4X4X4X4X4X4X4X#X{.Q O Q c.i ; 4.z.z.z.z._ @ K z._.*X1X1X5X5X1X1X5X4X4X4X4X4X4X4X4X4X",
"4X4X4X4X4X4X4X4X4X4X4X4X4X2X4X<Xj.Q   / ^.p ; 2.z.z.z.z.( = L l.v.~.+X<X5X5X1X1X5X4X4X4X4X4X4X4X4X4X",
"4X4X4X4X4X4X4X4X4X4X4X4X5X2X5X$Xf.E - Q j.p : 2.z.z.z.z._ q L z.d.c.+X1X5X5X1X1X5X4X4X4X4X4X4X4X4X4X",
"4X4X4X4X4X4X4X4X4X4X4X4X4X4X4XB.e G / 5.f.0.) l.l.l.z.l.e.4.i.v.k.K.*X4X5X5X1X1X5X4X4X4X4X4X4X4X4X4X",
"4X4X4X4X4X4X4X4X4X4X4X4X4X2X4X7.  F w.j.^.n.p.a.s.l.l.x.k.k.k.c.d.J.*X4X5X5X1X1X5X4X4X4X4X4X4X4X4X4X",
"4X4X4X4X4X4X4X4X4X4X4X4X4X4X4X-.% F 6.e.b.p.a.a.s.l.k.x.x.k.g.k.d.x.].1X5X5X1X1X5X4X4X4X4X4X4X4X4X4X",
"4X4X4X4X4X4X4X4X4X4X4X4X2X4X4XF.v T y.y.e.q.q.q.s.l.x.x.x.x.h.g.v.~.&X1X5X5X5X5X5X4X4X4X4X4X4X4X4X4X",
"4X4X4X4X4X4X4X4X4X4X4X4X5X5X4X5X<X<X1XH.e.e.a.p.l.x.v.J.x.h.h.h._.{.1X5X5X5X5X5X4X4X4X4X4X4X4X4X4X4X",
"4X4X4X4X4X4X4X4X4X4X4X4X4X5X2X2X1X<X1X+XH.K.[.~.L.X.3.~.~.~.~.[.;X1X1X5X4X5X5X5X4X4X4X4X4X4X4X4X4X4X",
"4X4X4X4X4X4X4X4X4X4X4X4X4X5X5X2X1X<X1X<X-X<X<X<XU.r N ).{.{.{.*X1X1X1X5X5X5X5X5X4X4X4X4X4X4X4X4X4X4X",
"4X4X4X4X4X4X4X4X4X4X4X4X4X5X5X2X2X<X<X1X5X5X1X1XU.y C ).;X;X;X;X1X1X1X1X5X5X5X4X4X4X4X4X4X4X4X4X4X4X",
"4X4X4X4X4X4X4X4X4X4X4X4X4X5X5X2X2X<X<X<X<X<X-X-XU.a A `.&X-X-X;X;X1X1X1X5X5X5X4X4X4X4X4X4X4X4X4X4X4X",
"4X4X4X4X4X4X4X4X4X4X4X4X5X5X2X5X5X1X<X#X/.-X1X-XY.y C `.-X-X-X;X;X;X1X1X1X1X5X5X4X4X4X4X4X4X4X4X4X4X",
"4X4X4X4X4X4X4X4X4X4X4X4X5X5X2X5X5X1X-X@X/.-X1X-XY.y C `.-X-X-X;X1X1X1X1X1X5X5X5X4X4X4X4X4X4X4X4X4X4X",
"4X4X4X4X4X4X4X4X4X4X4X4X4X5X2X4X2X1X<X@X/.-X1X-XY.u Z oX-X-X;X1X;X1X1X5X5X5X5X5X4X4X4X4X4X4X4X4X4X4X",
"4X4X4X4X4X4X4X4X4X4X4X4X4X5X2X4X1X1X<X@X/.-X1X-XY.r Z oX#X#X-X1X1X1X1X5X5X5X5X5X4X4X4X4X4X4X4X4X4X4X",
"4X4X4X4X4X4X4X4X4X4X4X4X4X4X2X2X<X1X<X#X/.-X1X-X@XT.8.N R #X#X1X#X2X2X2X4X4X5X5X4X4X4X4X4X4X4X4X4X4X",
"4X4X4X4X4X4X4X4X4X5X4X4X4X4X2X2X<X1X<X#X/.-X1X-X1X1XR.r I 2X1X1X#X:X<X2X4X4X4X4X4X4X4X4X4X4X4X4X4X4X",
"4X4X4X4X4X4X4X4X4X4X4X4X4X4X2X2X#X2X1X@X/.-X1X-X5X5XP.r Y 2X<X<X#X#X<X1X5X4X4X5X4X4X5X5X4X4X4X4X4X4X",
"4X4X4X4X4X4X4X4X5X5X4X4X4X4X2X<X-X1X1X@X/.-X1X-X4X=XP.A X.2XOX=X+X&X;X1X5X5X4X5X4X4X5X5X4X4X4X4X4X4X",
"4X4X4X4X4X4X4X4X1X1X4X4X4X2X<X-X-XOX5X5X X-X1X<X1X1X2X2X2X2X5X1X&X{.{.;X1X5X5X4X4X4X5X5X4X4X4X4X4X4X",
"4X4X4X4X4X4X4X4X5X5X4X4X4X1X+X].+XOX1X@XI.@X<X@X<X<X1X1X1X2X5X1X{.}.}.'.1X1X5X4X4X4X5X5X4X4X4X4X4X4X",
"4X4X4X4X4X4X4X4X4X4X4X4X2X;X^.^.H.$X4X@X X<X5X<X5X5X5X3X6X,X,X%X}.^.W.Q.;X5X4X4X4X5X5X5X4X4X4X4X4X4X",
"4X4X4X4X4X4X4X4X4X4X4X4X1X;Xj.G.-X<X-X7.'  .%. . .| o.o.o.o.%.O.w.b.Q.C.1X5X4X4X4X5X5X4X4X4X4X4X4X4X",
"4X4X4X4X4X4X4X4X4X4X4X4X1X1X%X(.4X2X1X} 6 j c j 9 w k b x k k l -.;X'.'.1X5X5X4X4X5X4X4X4X4X4X4X4X4X",
"4X4X4X4X4X4X4X4X4X4X4X4X5X5X1X=X4X2X1X} 6 j c j j h j x x k k k <.5X@X@X1X5X5X4X4X4X4X4X4X4X4X4X4X4X",
"4X4X4X4X4X4X4X4X4X4X4X5X5X5X5X1X4X5X1X} 6 j c j c c x k k j j j :.4X1X1X5X5X5X4X4X4X4X4X4X4X4X4X4X4X",
"4X4X4X4X4X4X4X4X4X4X5X5X5X5X5X5X4X5X1X} 6 h x k M >.&.w k z j k :.4X5X4X5X5X5X5X4X4X4X4X4X4X4X4X4X4X",
"4X4X4X4X4X4X4X4X4X4X5X5X5X5X5X5X4X4X,X} < h M H J @XS.x z z k x :.4X5X4X4X4X4X4X4X4X4X4X4X4X4X4X4X4X",
"4X4X4X4X4X4X4X4X4X4X5X5X5X5X5X5X2X4X4X' 0 f H N.3X,X=XS. .h x n :.4X5X4X4X4X4X4X4X4X4X4X4X4X4X4X4X4X",
"4X4X4X4X4X4X4X4X4X4X5X5X5X5X5X5X4XXXA.! 0 z x Z.4X4X4X1Xm.8 j x :.4X4X4X4X4X4X4X4X4X4X4X4X4X4X4X4X4X",
"4X4X4X4X4X4X4X4X4X4X5X5X5X5X5X4X4XO.h x k h M S.3X3X4X1X:.8 9 9 &.4X2X4X4X4X4X4X4X4X4X4X4X4X4X4X4X4X",
"4X4X4X4X4X4X4X4X4X4X4X4X4X4X4X4X4X#.5 h z J ] |.4X4X4X4Xr.8 8 k $.4X3X4X4X4X4X4X4X4X4X4X4X4X4X4X4X4X",
"4X4X4X4X4X4X4X4X4X4X4X4X4X4X4X4X4X#.5 h h m.4X4X4X4X4X4Xr.8 8 k :.4X5X4X4X4X4X4X4X4X4X4X4X4X4X4X4X4X",
"4X4X4X4X4X4X4X4X4X4X4X4X4X4X4X4X4X#.4 g b ,.4X6X4X4X5X5X9.7 8 k =.4X5X4X4X4X4X4X4X4X4X4X4X4X4X4X4X4X",
"4X4X4X4X4X4X4X4X4X4X4X4X4X4X4X4X4X#.5 g m m.4X3X4X4X5X5X9.8 9 k =.4X5X4X4X4X4X4X4X4X4X4X4X4X4X4X4X4X",
"4X4X4X4X4X4X4X4X4X4X4X5X5X5X3X3XS.{ 0 d m :.>X.XE.E.E.E.*.7 9 h | (.5X,X4X4X4X4X4X4X4X4X4X4X4X4X4X4X",
"4X4X4X4X4X4X4X4X4X4X4X4X4X4X4X4XS.{ 5 9 9 +.S.A.V.V.V.V.#.2 7 9 [ B.XX4X5X5X5X2X2X4X4X4X4X4X4X4X4X4X",
"4X4X4X4X4X4X4X4X|.|.|.E.E.E.S.S.A.` < 5 3 { N.M.N.N.N.N.| , < 5 9 S >.S.S.S.S.S.|.,X4X4X4X4X4X4X4X4X",
"4X4X4X4X4X4X4X4XA.A.A.V.V.V.V.V.N.` < 3 3 { Z.M.Z.V.V.V.] . , , > , | A.A.A.A.A.B.|.2X4X4X4X4X4X4X4X",
"4X4X4X4X4X4X4X4X,X,X,X,X,X3X,X.XN.,.$.@.;.,.N.N.N.N.N.N.>.:.$.$.$.:.S.XX,X,X,X,X,X,X3X4X4X4X4X4X4X4X",
"4X4X4X4X4X4X4X4X3X3X3X3X4X4X4X>XV.N.N.N.N.N.N.N.N.N.N.N.A.A.A.N.N.N.XX2X4X4X4X4X4X4X5X3X4X4X4X4X4X4X"
};
